{
.appVersion = "3135";
.formatVersion = 3;
DisplayStrings = (
"ni3 hao3 di4 qiu2"
);
classes = (
{

glyphs = (
{
glyphname = A.part;
layers = (
{
anchors = (
{
name = _bottom;
pos = (249,750);
},
{
name = bottom;
pos = (249,350);
}
);
layerId = "528058B1-8975-4609-A45E-1B73D3A96491";
shapes = (
{
closed = 1;
nodes = (
(425,765,o),
(435,775,o),
(450,775,cs),
(464,775,o),
(473,763,o),
(473,751,cs),
(473,738,o),
(462,727,o),
(450,727,cs),
(437,727,o),
(425,736,o),
(425,751,cs)
);
},
{
closed = 1;
nodes = (
(25,356,o),
(25,362,o),
(30,367,cs),
(333,670,ls),
(338,675,o),
(344,675,o),
(350,675,cs),
(364,675,o),
(373,663,o),
(373,650,cs),
(373,644,o),
(372,639,o),
(368,635,cs),
(65,332,ls),
(61,328,o),
(56,327,o),
(50,327,cs),
(37,327,o),
(25,336,o),
(25,350,cs)
);
},
{
closed = 1;
nodes = (
(225,361,o),
(230,375,o),
(243,375,cs),
(455,375,ls),
(468,375,o),
(473,361,o),
(473,350,cs),
(473,340,o),
(467,327,o),
(455,327,cs),
(243,327,ls),
(231,327,o),
(225,340,o),
(225,350,cs)
);
}
);
width = 500;
}
);
},
{
glyphname = O.part;
layers = (
{
anchors = (
{
name = _bottom;
pos = (249,741);
},
{
name = bottom;
pos = (249,350);
}
);
layerId = "528058B1-8975-4609-A45E-1B73D3A96491";
shapes = (
{
closed = 1;
nodes = (
(25,551,o),
(25,557,o),
(30,562,cs),
(233,765,ls),
(238,770,o),
(244,773,o),
(250,773,cs),
(256,773,o),
(261,769,o),
(265,765,cs),
(368,662,ls),
(373,657,o),
(373,651,o),
(373,645,cs),
(373,632,o),
(363,622,o),
(350,622,cs),
(344,622,o),
(338,622,o),
(333,627,cs),
(248,708,l),
(88,545,l),
(248,385,l),
(333,465,ls),
(338,470,o),
(344,470,o),
(350,470,cs),
(364,470,o),
(373,458,o),
(373,445,cs),
(373,439,o),
(372,434,o),
(368,430,cs),
(265,327,ls),
(261,323,o),
(256,319,o),
(250,319,cs),
(244,319,o),
(238,322,o),
(233,327,cs),
(30,530,ls),
(26,534,o),
(25,539,o),
(25,545,cs)
);
},
{
closed = 1;
nodes = (
(425,560,o),
(435,570,o),
(449,570,cs),
(464,570,o),
(473,558,o),
(473,546,cs),
(473,532,o),
(463,522,o),
(450,522,cs),
(437,522,o),
(425,531,o),
(425,547,cs)
);
}
);
width = 500;
}
);
},
{
glyphname = one;
layers = (
{
hints = (
{
horizontal = 1;
place = (0, 69);
place = (0, 69);
type = Stem;
},
{
horizontal = 1;
place = (629, 103);
place = (629, 103);
type = Stem;
},
{
place = (123, 211);
place = (123, 211);
type = Stem;
},
{
place = (254, 80);
place = (254, 80);
type = Stem;
}
);
layerId = "528058B1-8975-4609-A45E-1B73D3A96491";
shapes = (
{
closed = 1;
nodes = (
(90,0,l),
(483,0,l),
(483,69,l),
(334,69,l),
(334,732,l),
(271,732,l),
(234,709,o),
(187,693,o),
(123,682,c),
(123,629,l),
(254,629,l),
(254,69,l),
(90,69,l)
);
}
);
width = 549;
}
);
tags = (
cff15
);
unicode = 49;
},
{
glyphname = two;
layers = (
{
hints = (
{
horizontal = 1;
place = (0, 70);
place = (0, 70);
type = Stem;
},
{
horizontal = 1;
place = (678, 67);
place = (678, 67);
type = Stem;
},
{
place = (383, 80);
place = (383, 80);
type = Stem;
}
);
layerId = "528058B1-8975-4609-A45E-1B73D3A96491";
shapes = (
{
closed = 1;
nodes = (
(45,0,l),
(499,0,l),
(499,70,l),
(288,70,ls),
(251,70,o),
(207,67,o),
(168,64,c),
(347,233,o),
(463,382,o),
(463,531,cs),
(463,661,o),
(383,745,o),
(253,745,cs),
(162,745,o),
(99,702,o),
(40,638,c),
(89,592,l),
(130,641,o),
(183,678,o),
(244,678,cs),
(338,678,o),
(383,614,o),
(383,528,cs),
(383,401,o),
(280,253,o),
(45,48,c)
);
}
);
width = 549;
}
);
tags = (
cff15
);
unicode = 50;
},
{
glyphname = three;
layers = (
{
hints = (
{
horizontal = 1;
place = (-13, 68);
place = (-13, 68);
type = Stem;
},
{
horizontal = 1;
place = (349, 64);
place = (349, 64);
type = Stem;
},
{
horizontal = 1;
place = (678, 67);
place = (678, 67);
type = Stem;
},
{
place = (178, 158);
place = (178, 158);
type = Stem;
},
{
place = (384, 83);
place = (384, 83);
type = Stem;
},
{
place = (410, 83);
place = (410, 83);
type = Stem;
}
);
layerId = "528058B1-8975-4609-A45E-1B73D3A96491";
shapes = (
{
closed = 1;
nodes = (
(390,-13,o),
(493,65,o),
(493,195,cs),
(493,296,o),
(422,362,o),
(336,382,c),
(336,386,l),
(414,414,o),
(467,473,o),
(467,564,cs),
(467,679,o),
(379,745,o),
(259,745,cs),
(175,745,o),
(111,708,o),
(58,659,c),
(102,606,l),
(143,648,o),
(196,678,o),
(256,678,cs),
(335,678,o),
(384,630,o),
(384,558,cs),
(384,476,o),
(332,413,o),
(178,413,c),
(178,349,l),
(348,349,o),
(410,289,o),
(410,197,cs),
(410,110,o),
(346,55,o),
(257,55,cs),
(170,55,o),
(115,96,o),
(72,141,c),
(30,87,l),
(77,36,o),
(147,-13,o),
(261,-13,cs)
);
}
);
width = 549;
}
);
tags = (
cff15
);
unicode = 51;
},
{
glyphname = four;
layers = (
{
hints = (
{
horizontal = 1;
place = (0, 21);
target = up;
type = BottomGhost;
},
{
horizontal = 1;
place = (204, 65);
place = (204, 65);
type = Stem;
},
{
horizontal = 1;
place = (637, 95);
place = (637, 95);
type = Stem;
},
{
place = (340, 77);
place = (340, 77);
type = Stem;
}
);
layerId = "528058B1-8975-4609-A45E-1B73D3A96491";
shapes = (
{
closed = 1;
nodes = (
(340,0,l),
(417,0,l),
(417,204,l),
(517,204,l),
(517,269,l),
(417,269,l),
(417,732,l),
(330,732,l),
(19,257,l),
(19,204,l),
(340,204,l)
);
},
{
closed = 1;
nodes = (
(340,269,l),
(106,269,l),
(283,531,l),
(303,566,o),
(323,603,o),
(341,637,c),
(346,637,l),
(343,601,o),
(340,543,o),
(340,508,cs)
);
}
);
width = 549;
}
);
tags = (
cff15
);
unicode = 52;
},
{
glyphname = B.part;
layers = (
{
anchors = (
{
name = _bottom;
pos = (249,751);
},
{
name = bottom;
pos = (249,350);
}
);
layerId = "528058B1-8975-4609-A45E-1B73D3A96491";
shapes = (
{
closed = 1;
nodes = (
(25,766,o),
(35,775,o),
(49,775,cs),
(64,775,o),
(72,763,o),
(72,752,cs),
(72,738,o),
(62,727,o),
(49,727,cs),
(37,727,o),
(25,736,o),
(25,751,cs)
);
},
{
closed = 1;
nodes = (
(225,761,o),
(230,775,o),
(242,775,cs),
(455,775,ls),
(467,775,o),
(472,761,o),
(472,751,cs),
(472,742,o),
(466,727,o),
(455,727,cs),
(242,727,ls),
(231,727,o),
(225,742,o),
(225,751,cs)
);
},
{
closed = 1;
nodes = (
(125,560,o),
(130,575,o),
(142,575,cs),
(455,575,ls),
(467,575,o),
(472,560,o),
(472,550,cs),
(472,540,o),
(466,527,o),
(455,527,cs),
(142,527,ls),
(131,527,o),
(125,540,o),
(125,550,cs)
);
},
{
closed = 1;
nodes = (
(25,360,o),
(30,375,o),
(42,375,cs),
(355,375,ls),
(367,375,o),
(372,360,o),
(372,350,cs),
(372,340,o),
(366,327,o),
(355,327,cs),
(42,327,ls),
(31,327,o),
(25,340,o),
(25,350,cs)
);
}
);
width = 500;
}
);
},
{
glyphname = end.part;
layers = (
{
anchors = (
{
name = _bottom;
pos = (249,751);
}
);
layerId = "528058B1-8975-4609-A45E-1B73D3A96491";
shapes = (
{
closed = 1;
nodes = (
(425,764,o),
(435,775,o),
(449,775,cs),
(464,775,o),
(473,763,o),
(473,751,cs),
(473,738,o),
(463,728,o),
(449,728,cs),
(437,728,o),
(425,737,o),
(425,751,cs)
);
},
{
closed = 1;
nodes = (
(25,356,o),
(26,363,o),
(32,369,cs),
(333,670,ls),
(338,675,o),
(344,675,o),
(350,675,cs),
(364,675,o),
(373,663,o),
(373,650,cs),
(373,644,o),
(372,639,o),
(368,635,cs),
(67,334,ls),
(62,329,o),
(56,327,o),
(50,327,cs),
(37,327,o),
(25,336,o),
(25,350,cs)
);
}
);
width = 500;
}
);
},
{
glyphname = E.part;
layers = (
{
anchors = (
{
name = _bottom;
pos = (249,751);
},
{
name = bottom;
pos = (249,350);
}
);
layerId = "528058B1-8975-4609-A45E-1B73D3A96491";
shapes = (
{
closed = 1;
nodes = (
(25,765,o),
(35,775,o),
(49,775,cs),
(64,775,o),
(73,763,o),
(73,751,cs),
(73,738,o),
(62,727,o),
(49,727,cs),
(37,727,o),
(25,736,o),
(25,751,cs)
);
},
{
closed = 1;
nodes = (
(225,762,o),
(230,775,o),
(243,775,cs),
(455,775,ls),
(468,775,o),
(473,762,o),
(473,751,cs),
(473,740,o),
(466,727,o),
(455,727,cs),
(243,727,ls),
(232,727,o),
(225,740,o),
(225,751,cs)
);
},
{
closed = 1;
nodes = (
(125,561,o),
(130,575,o),
(143,575,cs),
(355,575,ls),
(368,575,o),
(373,561,o),
(373,550,cs),
(373,540,o),
(367,527,o),
(355,527,cs),
(143,527,ls),
(131,527,o),
(125,540,o),
(125,550,cs)
);
},
{
closed = 1;
nodes = (
(25,365,o),
(35,375,o),
(50,375,cs),
(64,375,o),
(73,363,o),
(73,350,cs),
(73,337,o),
(63,327,o),
(50,327,cs),
(37,327,o),
(25,336,o),
(25,350,cs)
);
},
{
closed = 1;
nodes = (
(225,361,o),
(230,375,o),
(243,375,cs),
(455,375,ls),
(468,375,o),
(473,361,o),
(473,350,cs),
(473,340,o),
(467,327,o),
(455,327,cs),
(243,327,ls),
(231,327,o),
(225,340,o),
(225,350,cs)
);
}
);
width = 500;
}
);
},
{
glyphname = I.part;
layers = (
{
anchors = (
{
name = _bottom;
pos = (249,751);
},
{
name = bottom;
pos = (249,350);
}
);
layerId = "528058B1-8975-4609-A45E-1B73D3A96491";
shapes = (
{
closed = 1;
nodes = (
(25,761,o),
(30,775,o),
(43,775,cs),
(253,775,ls),
(268,775,o),
(273,762,o),
(273,751,cs),
(273,740,o),
(268,727,o),
(253,727,cs),
(111,727,l),
(468,367,ls),
(473,362,o),
(473,356,o),
(473,350,cs),
(473,340,o),
(467,327,o),
(455,327,cs),
(243,327,ls),
(231,327,o),
(225,340,o),
(225,350,cs),
(225,359,o),
(232,375,o),
(243,375,cs),
(385,375,l),
(30,735,ls),
(26,739,o),
(25,744,o),
(25,750,cs)
);
},
{
closed = 1;
nodes = (
(425,765,o),
(435,775,o),
(450,775,cs),
(464,775,o),
(473,763,o),
(473,750,cs),
(473,738,o),
(462,727,o),
(450,727,cs),
(437,727,o),
(425,736,o),
(425,750,cs)
);
},
{
closed = 1;
nodes = (
(25,365,o),
(35,375,o),
(49,375,cs),
(64,375,o),
(73,365,o),
(73,351,cs),
(73,337,o),
(63,327,o),
(49,327,cs),
(37,327,o),
(25,336,o),
(25,350,cs)
);
}
);
width = 500;
}
);
},
{
glyphname = U.part;
layers = (
{
anchors = (
{
name = _bottom;
pos = (249,751);
},
{
name = bottom;
pos = (249,350);
}
);
layerId = "528058B1-8975-4609-A45E-1B73D3A96491";
shapes = (
{
closed = 1;
nodes = (
(225,765,o),
(235,775,o),
(249,775,cs),
(264,775,o),
(273,763,o),
(273,751,cs),
(273,738,o),
(262,728,o),
(249,728,cs),
(237,728,o),
(225,736,o),
(225,751,cs)
);
},
{
closed = 1;
nodes = (
(25,556,o),
(25,562,o),
(30,567,cs),
(133,670,ls),
(138,675,o),
(144,675,o),
(150,675,cs),
(164,675,o),
(173,663,o),
(173,650,cs),
(173,644,o),
(172,639,o),
(168,635,cs),
(88,550,l),
(248,390,l),
(433,570,ls),
(438,575,o),
(444,575,o),
(450,575,cs),
(464,575,o),
(473,563,o),
(473,550,cs),
(473,544,o),
(472,539,o),
(468,535,cs),
(265,332,ls),
(261,328,o),
(256,323,o),
(250,323,cs),
(244,323,o),
(238,327,o),
(233,332,cs),
(30,535,ls),
(26,539,o),
(25,544,o),
(25,550,cs)
);
}
);
width = 500;
}
);
},
{
glyphname = Y.part;
layers = (
{
anchors = (
{
name = _bottom;
pos = (249,751);
},
{
name = bottom;
pos = (249,350);
}
);
layerId = "528058B1-8975-4609-A45E-1B73D3A96491";
shapes = (
{
closed = 1;
nodes = (
(25,765,o),
(35,775,o),
(50,775,cs),
(56,775,o),
(61,774,o),
(65,770,cs),
(168,667,ls),
(173,662,o),
(173,656,o),
(173,650,cs),
(173,637,o),
(163,627,o),
(150,627,cs),
(144,627,o),
(138,627,o),
(133,632,cs),
(30,735,ls),
(26,739,o),
(25,744,o),
(25,750,cs)
);
},
{
closed = 1;
nodes = (
(425,765,o),
(435,775,o),
(450,775,cs),
(464,775,o),
(473,763,o),
(473,750,cs),
(473,738,o),
(462,728,o),
(450,728,cs),
(437,728,o),
(425,736,o),
(425,750,cs)
);
},
{
closed = 1;
nodes = (
(25,356,o),
(25,362,o),
(30,367,cs),
(333,670,ls),
(338,675,o),
(344,675,o),
(350,675,cs),
(364,675,o),
(373,663,o),
(373,650,cs),
(373,644,o),
(372,639,o),
(368,635,cs),
(65,332,ls),
(61,328,o),
(56,327,o),
(50,327,cs),
(37,327,o),
(25,336,o),
(25,350,cs)
);
},
{
closed = 1;
nodes = (
(325,465,o),
(335,475,o),
(350,475,cs),
(356,475,o),
(361,474,o),
(365,470,cs),
(468,367,ls),
(473,362,o),
(473,356,o),
(473,350,cs),
(473,337,o),
(463,327,o),
(450,327,cs),
(444,327,o),
(438,327,o),
(433,332,cs),
(330,435,ls),
(326,439,o),
(325,444,o),
(325,450,cs)
);
}
);
width = 500;
}
);
},
{
glyphname = W.part;
layers = (
{
anchors = (
{
name = _bottom;
pos = (249,751);
},
{
name = bottom;
pos = (249,350);
}
);
layerId = "528058B1-8975-4609-A45E-1B73D3A96491";
shapes = (
{
closed = 1;
nodes = (
(25,765,o),
(35,775,o),
(50,775,cs),
(64,775,o),
(73,763,o),
(73,750,cs),
(73,738,o),
(62,728,o),
(50,728,cs),
(37,728,o),
(25,736,o),
(25,750,cs)
);
},
{
closed = 1;
nodes = (
(325,765,o),
(335,775,o),
(350,775,cs),
(356,775,o),
(361,774,o),
(365,770,cs),
(468,667,ls),
(473,662,o),
(473,656,o),
(473,650,cs),
(473,637,o),
(463,627,o),
(450,627,cs),
(444,627,o),
(438,627,o),
(433,632,cs),
(330,735,ls),
(326,739,o),
(325,744,o),
(325,750,cs)
);
},
{
closed = 1;
nodes = (
(25,356,o),
(25,362,o),
(30,367,cs),
(233,570,ls),
(238,575,o),
(244,575,o),
(250,575,cs),
(256,575,o),
(261,574,o),
(265,570,cs),
(468,367,ls),
(473,362,o),
(473,356,o),
(473,350,cs),
(473,337,o),
(463,327,o),
(450,327,cs),
(444,327,o),
(438,327,o),
(433,332,cs),
(250,512,l),
(65,332,ls),
(61,328,o),
(56,327,o),
(50,327,cs),
(37,327,o),
(25,336,o),
(25,350,cs)
);
}
);
width = 500;
}
);
},
{
glyphname = P.part;
layers = (
{
anchors = (
{
name = _bottom;
pos = (249,751);
},
{
name = bottom;
pos = (249,350);
}
);
layerId = "528058B1-8975-4609-A45E-1B73D3A96491";
shapes = (
{
closed = 1;
nodes = (
(25,765,o),
(35,775,o),
(50,775,cs),
(64,775,o),
(73,763,o),
(73,750,cs),
(73,738,o),
(62,728,o),
(50,728,cs),
(37,728,o),
(25,736,o),
(25,750,cs)
);
},
{
closed = 1;
nodes = (
(250,590,l),
(433,770,ls),
(438,775,o),
(444,775,o),
(450,775,cs),
(464,775,o),
(473,763,o),
(473,750,cs),
(473,744,o),
(472,739,o),
(468,735,cs),
(288,550,l),
(468,367,ls),
(473,362,o),
(473,356,o),
(473,350,cs),
(473,337,o),
(463,327,o),
(450,327,cs),
(444,327,o),
(438,327,o),
(433,332,cs),
(130,635,ls),
(126,639,o),
(125,644,o),
(125,650,cs),
(125,665,o),
(135,675,o),
(150,675,cs),
(156,675,o),
(161,674,o),
(165,670,cs)
);
}
);
width = 500;
}
);
},
{
glyphname = M.part;
layers = (
{
anchors = (
{
name = _bottom;
pos = (249,751);
},
{
name = bottom;
pos = (249,350);
}
);
layerId = "528058B1-8975-4609-A45E-1B73D3A96491";
shapes = (
{
closed = 1;
nodes = (
(25,765,o),
(35,775,o),
(50,775,cs),
(56,775,o),
(61,774,o),
(65,770,cs),
(250,590,l),
(433,770,ls),
(438,775,o),
(444,775,o),
(450,775,cs),
(464,775,o),
(473,763,o),
(473,750,cs),
(473,744,o),
(472,739,o),
(468,735,cs),
(265,532,ls),
(261,528,o),
(256,527,o),
(250,527,cs),
(244,527,o),
(238,527,o),
(233,532,cs),
(30,735,ls),
(26,739,o),
(25,744,o),
(25,750,cs)
);
},
{
closed = 1;
nodes = (
(225,356,o),
(225,362,o),
(230,367,cs),
(433,570,ls),
(438,575,o),
(444,575,o),
(450,575,cs),
(464,575,o),
(473,563,o),
(473,550,cs),
(473,544,o),
(472,539,o),
(468,535,cs),
(265,332,ls),
(261,328,o),
(256,327,o),
(250,327,cs),
(237,327,o),
(225,336,o),
(225,350,cs)
);
},
{
closed = 1;
nodes = (
(25,365,o),
(35,375,o),
(50,375,cs),
(64,375,o),
(73,363,o),
(73,351,cs),
(73,337,o),
(63,327,o),
(50,327,cs),
(37,327,o),
(25,336,o),
(25,351,cs)
);
}
);
width = 500;
}
);
},
{
glyphname = F.part;
layers = (
{
anchors = (
{
name = _bottom;
pos = (249,751);
},
{
name = bottom;
pos = (249,350);
}
);
layerId = "528058B1-8975-4609-A45E-1B73D3A96491";
shapes = (
{
closed = 1;
nodes = (
(25,765,o),
(35,775,o),
(50,775,cs),
(64,775,o),
(73,763,o),
(73,751,cs),
(73,738,o),
(62,728,o),
(50,728,cs),
(37,728,o),
(25,736,o),
(25,751,cs)
);
},
{
closed = 1;
nodes = (
(225,761,o),
(230,775,o),
(243,775,cs),
(455,775,ls),
(468,775,o),
(473,761,o),
(473,751,cs),
(473,740,o),
(466,728,o),
(455,728,cs),
(243,728,ls),
(232,728,o),
(225,740,o),
(225,751,cs)
);
},
{
closed = 1;
nodes = (
(225,561,o),
(230,575,o),
(243,575,cs),
(455,575,ls),
(468,575,o),
(473,561,o),
(473,550,cs),
(473,541,o),
(465,525,o),
(455,525,cs),
(313,525,l),
(468,367,ls),
(473,362,o),
(473,356,o),
(473,350,cs),
(473,337,o),
(463,327,o),
(450,327,cs),
(444,327,o),
(438,327,o),
(433,332,cs),
(230,535,ls),
(226,539,o),
(225,544,o),
(225,550,cs)
);
}
);
width = 500;
}
);
},
{
glyphname = D.part;
layers = (
{
anchors = (
{
name = _bottom;
pos = (249,751);
},
{
name = bottom;
pos = (249,350);
}
);
layerId = "528058B1-8975-4609-A45E-1B73D3A96491";
shapes = (
{
closed = 1;
nodes = (
(25,760,o),
(30,775,o),
(42,775,cs),
(310,775,l),
(467,618,ls),
(472,613,o),
(472,607,o),
(472,600,cs),
(472,588,o),
(462,578,o),
(450,578,cs),
(443,578,o),
(437,578,o),
(432,583,cs),
(287,727,l),
(42,727,ls),
(32,727,o),
(25,742,o),
(25,751,cs)
);
},
{
closed = 1;
nodes = (
(25,565,o),
(35,575,o),
(50,575,cs),
(56,575,o),
(61,574,o),
(65,570,cs),
(267,367,ls),
(272,362,o),
(272,356,o),
(272,350,cs),
(272,338,o),
(262,327,o),
(250,327,cs),
(243,327,o),
(237,327,o),
(232,332,cs),
(30,535,ls),
(26,539,o),
(25,544,o),
(25,550,cs)
);
},
{
closed = 1;
nodes = (
(425,365,o),
(435,375,o),
(449,375,cs),
(464,375,o),
(472,363,o),
(472,351,cs),
(472,338,o),
(462,327,o),
(449,327,cs),
(437,327,o),
(425,336,o),
(425,351,cs)
);
}
);
width = 500;
}
);
},
{
glyphname = T.part;
layers = (
{
anchors = (
{
name = _bottom;
pos = (249,751);
},
{
name = bottom;
pos = (249,350);
}
);
layerId = "528058B1-8975-4609-A45E-1B73D3A96491";
shapes = (
{
closed = 1;
nodes = (
(25,765,o),
(35,775,o),
(49,775,cs),
(64,775,o),
(72,763,o),
(72,751,cs),
(72,738,o),
(62,728,o),
(49,728,cs),
(37,728,o),
(25,736,o),
(25,751,cs)
);
},
{
closed = 1;
nodes = (
(225,760,o),
(230,775,o),
(242,775,cs),
(455,775,ls),
(467,775,o),
(472,760,o),
(472,751,cs),
(472,741,o),
(466,728,o),
(455,728,cs),
(242,728,ls),
(231,728,o),
(225,741,o),
(225,751,cs)
);
},
{
closed = 1;
nodes = (
(125,665,o),
(135,675,o),
(150,675,cs),
(156,675,o),
(161,674,o),
(165,670,cs),
(467,367,ls),
(472,362,o),
(472,356,o),
(472,350,cs),
(472,338,o),
(462,327,o),
(450,327,cs),
(443,327,o),
(437,327,o),
(432,332,cs),
(130,635,ls),
(126,639,o),
(125,644,o),
(125,650,cs)
);
}
);
width = 500;
}
);
},
{
glyphname = N.part;
layers = (
{
anchors = (
{
name = _bottom;
pos = (249,751);
},
{
name = bottom;
pos = (249,350);
}
);
layerId = "528058B1-8975-4609-A45E-1B73D3A96491";
shapes = (
{
closed = 1;
nodes = (
(25,765,o),
(35,775,o),
(50,775,cs),
(56,775,o),
(61,774,o),
(65,770,cs),
(468,367,ls),
(473,362,o),
(473,356,o),
(473,350,cs),
(473,337,o),
(463,327,o),
(450,327,cs),
(444,327,o),
(438,327,o),
(433,332,cs),
(30,735,ls),
(26,739,o),
(25,744,o),
(25,750,cs)
);
},
{
closed = 1;
nodes = (
(325,765,o),
(335,775,o),
(350,775,cs),
(356,775,o),
(361,774,o),
(365,770,cs),
(468,667,ls),
(473,662,o),
(473,656,o),
(473,650,cs),
(473,637,o),
(463,627,o),
(450,627,cs),
(444,627,o),
(438,627,o),
(433,632,cs),
(330,735,ls),
(326,739,o),
(325,744,o),
(325,750,cs)
);
},
{
closed = 1;
nodes = (
(25,364,o),
(35,374,o),
(49,374,cs),
(64,374,o),
(73,362,o),
(73,350,cs),
(73,336,o),
(63,326,o),
(49,326,cs),
(37,326,o),
(25,335,o),
(25,350,cs)
);
}
);
width = 500;
}
);
},
{
glyphname = L.part;
layers = (
{
anchors = (
{
name = _bottom;
pos = (249,751);
},
{
name = bottom;
pos = (249,350);
}
);
layerId = "528058B1-8975-4609-A45E-1B73D3A96491";
shapes = (
{
closed = 1;
nodes = (
(25,765,o),
(35,775,o),
(50,775,cs),
(56,775,o),
(61,774,o),
(65,770,cs),
(260,575,l),
(455,575,ls),
(466,575,o),
(473,559,o),
(473,550,cs),
(473,540,o),
(467,527,o),
(455,527,cs),
(238,527,l),
(30,735,ls),
(26,739,o),
(25,744,o),
(25,750,cs)
);
},
{
closed = 1;
nodes = (
(25,364,o),
(35,374,o),
(49,374,cs),
(64,374,o),
(73,362,o),
(73,350,cs),
(73,336,o),
(63,326,o),
(49,326,cs),
(37,326,o),
(25,335,o),
(25,350,cs)
);
},
{
closed = 1;
nodes = (
(225,361,o),
(230,375,o),
(243,375,cs),
(455,375,ls),
(468,375,o),
(473,361,o),
(473,350,cs),
(473,340,o),
(467,327,o),
(455,327,cs),
(243,327,ls),
(231,327,o),
(225,340,o),
(225,350,cs)
);
}
);
width = 500;
}
);
},
{
glyphname = G.part;
layers = (
{
anchors = (
{
name = _bottom;
pos = (249,751);
},
{
name = bottom;
pos = (249,350);
}
);
guides = (
{
pos = (0,350);
}
);
layerId = "528058B1-8975-4609-A45E-1B73D3A96491";
shapes = (
{
closed = 1;
nodes = (
(25,761,o),
(30,775,o),
(43,775,cs),
(255,775,ls),
(268,775,o),
(273,761,o),
(273,751,cs),
(273,740,o),
(266,727,o),
(255,727,cs),
(43,727,ls),
(32,727,o),
(25,740,o),
(25,751,cs)
);
},
{
closed = 1;
nodes = (
(425,765,o),
(435,775,o),
(449,775,cs),
(464,775,o),
(473,763,o),
(473,751,cs),
(473,738,o),
(462,727,o),
(449,727,cs),
(437,727,o),
(425,736,o),
(425,751,cs)
);
},
{
closed = 1;
nodes = (
(225,561,o),
(230,575,o),
(243,575,cs),
(455,575,ls),
(468,575,o),
(473,561,o),
(473,550,cs),
(473,540,o),
(467,527,o),
(455,527,cs),
(243,527,ls),
(231,527,o),
(225,540,o),
(225,550,cs)
);
},
{
closed = 1;
nodes = (
(25,364,o),
(35,374,o),
(49,374,cs),
(64,374,o),
(73,362,o),
(73,350,cs),
(73,336,o),
(63,326,o),
(49,326,cs),
(37,326,o),
(25,335,o),
(25,350,cs)
);
},
{
closed = 1;
nodes = (
(225,361,o),
(230,375,o),
(243,375,cs),
(455,375,ls),
(468,375,o),
(473,361,o),
(473,350,cs),
(473,340,o),
(467,327,o),
(455,327,cs),
(243,327,ls),
(231,327,o),
(225,340,o),
(225,350,cs)
);
}
);
width = 500;
}
);
},
{
glyphname = K.part;
layers = (
{
anchors = (
{
name = _bottom;
pos = (249,751);
},
{
name = bottom;
pos = (249,350);
}
);
layerId = "528058B1-8975-4609-A45E-1B73D3A96491";
shapes = (
{
closed = 1;
nodes = (
(25,656,o),
(25,662,o),
(30,667,cs),
(133,770,ls),
(138,775,o),
(144,775,o),
(150,775,cs),
(164,775,o),
(173,763,o),
(173,750,cs),
(173,744,o),
(172,739,o),
(168,735,cs),
(65,632,ls),
(61,628,o),
(56,627,o),
(50,627,cs),
(37,627,o),
(25,636,o),
(25,650,cs)
);
},
{
closed = 1;
nodes = (
(225,556,o),
(225,562,o),
(230,567,cs),
(433,770,ls),
(438,775,o),
(444,775,o),
(450,775,cs),
(464,775,o),
(473,763,o),
(473,750,cs),
(473,744,o),
(472,739,o),
(468,735,cs),
(288,550,l),
(468,367,ls),
(473,362,o),
(473,356,o),
(473,350,cs),
(473,337,o),
(463,327,o),
(450,327,cs),
(444,327,o),
(438,327,o),
(433,332,cs),
(230,535,ls),
(226,539,o),
(225,544,o),
(225,550,cs)
);
},
{
closed = 1;
nodes = (
(25,364,o),
(35,374,o),
(49,374,cs),
(64,374,o),
(73,362,o),
(73,350,cs),
(73,336,o),
(63,326,o),
(49,326,cs),
(37,326,o),
(25,335,o),
(25,350,cs)
);
}
);
width = 500;
}
);
},
{
glyphname = H.part;
layers = (
{
anchors = (
{
name = _bottom;
pos = (249,751);
},
{
name = bottom;
pos = (249,350);
}
);
layerId = "528058B1-8975-4609-A45E-1B73D3A96491";
shapes = (
{
closed = 1;
nodes = (
(225,765,o),
(235,775,o),
(250,775,cs),
(256,775,o),
(261,774,o),
(265,770,cs),
(468,567,ls),
(473,562,o),
(473,556,o),
(473,550,cs),
(473,541,o),
(465,526,o),
(455,526,cs),
(212,526,l),
(368,367,ls),
(373,362,o),
(373,356,o),
(373,350,cs),
(373,337,o),
(363,327,o),
(350,327,cs),
(344,327,o),
(338,327,o),
(333,332,cs),
(130,535,ls),
(126,539,o),
(125,544,o),
(125,550,cs),
(125,559,o),
(132,574,o),
(143,574,cs),
(386,574,l),
(230,735,ls),
(226,739,o),
(225,744,o),
(225,750,cs)
);
},
{
closed = 1;
nodes = (
(25,364,o),
(35,374,o),
(49,374,cs),
(64,374,o),
(73,362,o),
(73,350,cs),
(73,336,o),
(63,326,o),
(49,326,cs),
(37,326,o),
(25,335,o),
(25,350,cs)
);
}
);
width = 500;
}
);
},
{
glyphname = J.part;
layers = (
{
anchors = (
{
name = _bottom;
pos = (249,751);
},
{
name = bottom;
pos = (249,350);
}
);
layerId = "528058B1-8975-4609-A45E-1B73D3A96491";
shapes = (
{
closed = 1;
nodes = (
(25,765,o),
(35,775,o),
(50,775,cs),
(56,775,o),
(61,774,o),
(65,770,cs),
(467,368,ls),
(472,363,o),
(472,357,o),
(472,350,cs),
(472,341,o),
(466,328,o),
(455,328,cs),
(242,328,ls),
(231,328,o),
(225,341,o),
(225,350,cs),
(225,359,o),
(231,375,o),
(242,375,cs),
(385,375,l),
(30,735,ls),
(26,739,o),
(25,744,o),
(25,750,cs)
);
},
{
closed = 1;
nodes = (
(25,364,o),
(35,374,o),
(49,374,cs),
(64,374,o),
(72,362,o),
(72,350,cs),
(72,337,o),
(62,327,o),
(49,327,cs),
(37,327,o),
(25,335,o),
(25,350,cs)
);
}
);
width = 500;
}
);
},
{
glyphname = Q.part;
layers = (
{
anchors = (
{
name = _bottom;
pos = (249,751);
},
{
name = bottom;
pos = (249,350);
}
);
layerId = "528058B1-8975-4609-A45E-1B73D3A96491";
shapes = (
{
closed = 1;
nodes = (
(25,557,o),
(25,563,o),
(30,568,cs),
(232,770,ls),
(237,775,o),
(243,775,o),
(250,775,cs),
(256,775,o),
(261,774,o),
(265,770,cs),
(467,568,ls),
(472,563,o),
(472,557,o),
(472,550,cs),
(472,538,o),
(462,528,o),
(450,528,cs),
(443,528,o),
(437,528,o),
(432,533,cs),
(247,713,l),
(87,553,l),
(267,368,ls),
(272,363,o),
(272,357,o),
(272,350,cs),
(272,338,o),
(262,328,o),
(250,328,cs),
(243,328,o),
(237,328,o),
(232,333,cs),
(30,535,ls),
(26,539,o),
(25,544,o),
(25,550,cs)
);
},
{
closed = 1;
nodes = (
(425,365,o),
(435,375,o),
(449,375,cs),
(464,375,o),
(472,363,o),
(472,351,cs),
(472,338,o),
(462,328,o),
(449,328,cs),
(437,328,o),
(425,336,o),
(425,351,cs)
);
}
);
width = 500;
}
);
},
{
glyphname = X.part;
layers = (
{
anchors = (
{
name = _bottom;
pos = (249,751);
},
{
name = bottom;
pos = (249,350);
}
);
layerId = "528058B1-8975-4609-A45E-1B73D3A96491";
shapes = (
{
closed = 1;
nodes = (
(25,765,o),
(35,775,o),
(50,775,cs),
(56,775,o),
(61,774,o),
(65,770,cs),
(167,668,ls),
(172,663,o),
(172,657,o),
(172,650,cs),
(172,638,o),
(162,628,o),
(150,628,cs),
(143,628,o),
(137,628,o),
(132,633,cs),
(30,735,ls),
(26,739,o),
(25,744,o),
(25,750,cs)
);
},
{
closed = 1;
nodes = (
(425,765,o),
(435,775,o),
(449,775,cs),
(464,775,o),
(472,763,o),
(472,751,cs),
(472,738,o),
(462,728,o),
(449,728,cs),
(437,728,o),
(425,736,o),
(425,751,cs)
);
},
{
closed = 1;
nodes = (
(125,456,o),
(125,462,o),
(130,467,cs),
(232,570,ls),
(237,575,o),
(243,575,o),
(250,575,cs),
(256,575,o),
(261,574,o),
(265,570,cs),
(467,367,ls),
(472,362,o),
(472,356,o),
(472,350,cs),
(472,338,o),
(462,327,o),
(450,327,cs),
(443,327,o),
(437,327,o),
(432,332,cs),
(250,512,l),
(165,432,ls),
(161,428,o),
(156,427,o),
(150,427,cs),
(137,427,o),
(125,436,o),
(125,450,cs)
);
}
);
width = 500;
}
);
},
{
glyphname = Z.part;
layers = (
{
anchors = (
{
name = _bottom;
pos = (249,751);
},
{
name = bottom;
pos = (249,350);
}
);
layerId = "528058B1-8975-4609-A45E-1B73D3A96491";
shapes = (
{
closed = 1;
nodes = (
(25,765,o),
(35,775,o),
(49,775,cs),
(64,775,o),
(73,763,o),
(73,751,cs),
(73,738,o),
(62,727,o),
(49,727,cs),
(37,727,o),
(25,736,o),
(25,751,cs)
);
},
{
closed = 1;
nodes = (
(125,761,o),
(130,775,o),
(143,775,cs),
(455,775,ls),
(468,775,o),
(473,761,o),
(473,750,cs),
(473,744,o),
(472,739,o),
(468,735,cs),
(165,432,ls),
(161,428,o),
(156,427,o),
(150,427,cs),
(137,427,o),
(125,436,o),
(125,450,cs),
(125,456,o),
(125,462,o),
(130,467,cs),
(387,727,l),
(143,727,ls),
(131,727,o),
(125,741,o),
(125,751,cs)
);
},
{
closed = 1;
nodes = (
(25,365,o),
(35,375,o),
(49,375,cs),
(64,375,o),
(73,363,o),
(73,351,cs),
(73,337,o),
(63,327,o),
(49,327,cs),
(37,327,o),
(25,336,o),
(25,351,cs)
);
},
{
closed = 1;
nodes = (
(225,361,o),
(230,375,o),
(243,375,cs),
(455,375,ls),
(468,375,o),
(473,361,o),
(473,350,cs),
(473,340,o),
(467,327,o),
(455,327,cs),
(243,327,ls),
(231,327,o),
(225,340,o),
(225,350,cs)
);
}
);
width = 500;
}
);
},
{
glyphname = C.part;
layers = (
{
anchors = (
{
name = _bottom;
pos = (249,751);
},
{
name = bottom;
pos = (249,350);
}
);
layerId = "528058B1-8975-4609-A45E-1B73D3A96491";
shapes = (
{
closed = 1;
nodes = (
(25,761,o),
(30,775,o),
(42,775,cs),
(360,775,l),
(467,668,ls),
(472,663,o),
(472,657,o),
(472,650,cs),
(472,638,o),
(462,628,o),
(450,628,cs),
(443,628,o),
(437,628,o),
(432,633,cs),
(335,727,l),
(42,727,ls),
(31,727,o),
(25,742,o),
(25,751,cs)
);
},
{
closed = 1;
nodes = (
(25,365,o),
(35,375,o),
(49,375,cs),
(64,375,o),
(72,363,o),
(72,351,cs),
(72,338,o),
(62,327,o),
(49,327,cs),
(37,327,o),
(25,336,o),
(25,351,cs)
);
},
{
closed = 1;
nodes = (
(225,360,o),
(230,375,o),
(242,375,cs),
(455,375,ls),
(467,375,o),
(472,360,o),
(472,350,cs),
(472,340,o),
(466,327,o),
(455,327,cs),
(242,327,ls),
(231,327,o),
(225,340,o),
(225,350,cs)
);
}
);
width = 500;
}
);
},
{
glyphname = S.part;
layers = (
{
anchors = (
{
name = _bottom;
pos = (249,751);
},
{
name = bottom;
pos = (249,350);
}
);
layerId = "528058B1-8975-4609-A45E-1B73D3A96491";
shapes = (
{
closed = 1;
nodes = (
(25,556,o),
(25,563,o),
(30,568,cs),
(232,770,ls),
(237,775,o),
(243,775,o),
(250,775,cs),
(264,775,o),
(272,763,o),
(272,750,cs),
(272,744,o),
(271,739,o),
(267,735,cs),
(112,575,l),
(455,575,ls),
(466,575,o),
(472,559,o),
(472,550,cs),
(472,544,o),
(471,539,o),
(467,535,cs),
(265,332,ls),
(261,328,o),
(256,327,o),
(250,327,cs),
(237,327,o),
(225,336,o),
(225,350,cs),
(225,356,o),
(225,362,o),
(230,367,cs),
(385,525,l),
(42,525,ls),
(32,525,o),
(25,542,o),
(25,550,cs)
);
},
{
closed = 1;
nodes = (
(425,765,o),
(435,775,o),
(449,775,cs),
(464,775,o),
(472,763,o),
(472,751,cs),
(472,738,o),
(462,728,o),
(449,728,cs),
(437,728,o),
(425,736,o),
(425,751,cs)
);
}
);
width = 500;
}
);
},
{
glyphname = R.part;
layers = (
{
anchors = (
{
name = _bottom;
pos = (249,751);
},
{
name = bottom;
pos = (249,350);
}
);
layerId = "528058B1-8975-4609-A45E-1B73D3A96491";
shapes = (
{
closed = 1;
nodes = (
(25,760,o),
(30,775,o),
(42,775,cs),
(255,775,ls),
(267,775,o),
(272,760,o),
(272,750,cs),
(272,741,o),
(266,728,o),
(255,728,cs),
(42,728,ls),
(31,728,o),
(25,741,o),
(25,750,cs)
);
},
{
closed = 1;
nodes = (
(425,765,o),
(435,775,o),
(449,775,cs),
(464,775,o),
(472,763,o),
(472,751,cs),
(472,738,o),
(462,728,o),
(449,728,cs),
(437,728,o),
(425,736,o),
(425,751,cs)
);
},
{
closed = 1;
nodes = (
(225,560,o),
(230,575,o),
(242,575,cs),
(455,575,ls),
(467,575,o),
(472,560,o),
(472,550,cs),
(472,542,o),
(465,525,o),
(455,525,cs),
(312,525,l),
(467,368,ls),
(472,363,o),
(472,357,o),
(472,350,cs),
(472,338,o),
(462,328,o),
(450,328,cs),
(443,328,o),
(437,328,o),
(432,333,cs),
(230,535,ls),
(226,539,o),
(225,544,o),
(225,550,cs)
);
},
{
closed = 1;
nodes = (
(25,365,o),
(35,375,o),
(49,375,cs),
(64,375,o),
(72,363,o),
(72,351,cs),
(72,338,o),
(62,328,o),
(49,328,cs),
(37,328,o),
(25,336,o),
(25,351,cs)
);
}
);
width = 500;
}
);
},
{
glyphname = V.part;
layers = (
{
anchors = (
{
name = _bottom;
pos = (249,751);
},
{
name = bottom;
pos = (249,350);
}
);
layerId = "528058B1-8975-4609-A45E-1B73D3A96491";
shapes = (
{
closed = 1;
nodes = (
(306,375,l),
(200,375,l),
(200,725,l),
(306,725,l)
);
},
{
closed = 1;
nodes = (
(229,488,l),
(229,449,l),
(277,449,l),
(277,488,l)
);
},
{
closed = 1;
nodes = (
(229,548,l),
(229,509,l),
(277,509,l),
(277,548,l),
(249,548,l),
(249,528,l),
(258,528,l),
(258,538,l),
(268,538,l),
(268,518,l),
(239,518,l),
(239,548,l)
);
},
{
closed = 1;
nodes = (
(229,410,l),
(229,400,l),
(277,400,l),
(277,410,l),
(245,410,l),
(277,429,l),
(277,439,l),
(229,439,l),
(229,430,l),
(262,430,l)
);
},
{
closed = 1;
nodes = (
(229,656,l),
(229,622,l),
(277,622,l),
(277,631,l),
(258,631,l),
(258,656,l)
);
},
{
closed = 1;
nodes = (
(229,676,l),
(229,666,l),
(277,666,l),
(277,676,l),
(256,676,l),
(256,691,l),
(277,691,l),
(277,700,l),
(229,700,l),
(229,691,l),
(246,691,l),
(246,676,l)
);
},
{
closed = 1;
nodes = (
(229,587,l),
(229,578,l),
(258,578,l),
(258,602,l),
(277,602,l),
(277,612,l),
(229,612,l),
(229,602,l),
(249,602,l),
(249,587,l)
);
},
{
closed = 1;
nodes = (
(229,567,l),
(229,558,l),
(277,558,l),
(277,592,l),
(268,592,l),
(268,567,l)
);
},
{
closed = 1;
nodes = (
(268,459,l),
(239,459,l),
(239,479,l),
(268,479,l)
);
},
{
closed = 1;
nodes = (
(249,631,l),
(239,631,l),
(239,646,l),
(249,646,l)
);
}
);
width = 500;
}
);
},
{
color = (154,153,255,255);
glyphname = A.part2;
layers = (
{
anchors = (
{
name = _bottom;
pos = (249,750);
},
{
name = bottom;
pos = (249,350);
}
);
layerId = "528058B1-8975-4609-A45E-1B73D3A96491";
shapes = (
{
closed = 1;
nodes = (
(464,376,o),
(474,366,o),
(474,351,cs),
(474,337,o),
(462,328,o),
(450,328,cs),
(437,328,o),
(426,339,o),
(426,351,cs),
(426,364,o),
(435,376,o),
(450,376,cs)
);
},
{
closed = 1;
nodes = (
(55,776,o),
(61,776,o),
(66,771,cs),
(369,468,ls),
(374,463,o),
(374,457,o),
(374,451,cs),
(374,437,o),
(362,428,o),
(349,428,cs),
(343,428,o),
(338,429,o),
(334,433,cs),
(31,736,ls),
(27,740,o),
(26,745,o),
(26,751,cs),
(26,764,o),
(35,776,o),
(49,776,cs)
);
},
{
closed = 1;
nodes = (
(60,576,o),
(74,571,o),
(74,558,cs),
(74,346,ls),
(74,333,o),
(60,328,o),
(49,328,cs),
(39,328,o),
(26,334,o),
(26,346,cs),
(26,558,ls),
(26,570,o),
(39,576,o),
(49,576,cs)
);
}
);
width = 500;
}
);
},
{
color = (154,153,255,255);
glyphname = B.part2;
layers = (
{
anchors = (
{
name = _bottom;
pos = (249,751);
},
{
name = bottom;
pos = (249,350);
}
);
layerId = "528058B1-8975-4609-A45E-1B73D3A96491";
shapes = (
{
closed = 1;
nodes = (
(465,776,o),
(474,766,o),
(474,752,cs),
(474,737,o),
(462,729,o),
(451,729,cs),
(437,729,o),
(426,739,o),
(426,752,cs),
(426,764,o),
(435,776,o),
(450,776,cs)
);
},
{
closed = 1;
nodes = (
(460,576,o),
(474,571,o),
(474,559,cs),
(474,346,ls),
(474,334,o),
(460,329,o),
(450,329,cs),
(441,329,o),
(426,335,o),
(426,346,cs),
(426,559,ls),
(426,570,o),
(441,576,o),
(450,576,cs)
);
},
{
closed = 1;
nodes = (
(259,676,o),
(274,671,o),
(274,659,cs),
(274,346,ls),
(274,334,o),
(259,329,o),
(249,329,cs),
(239,329,o),
(226,335,o),
(226,346,cs),
(226,659,ls),
(226,670,o),
(239,676,o),
(249,676,cs)
);
},
{
closed = 1;
nodes = (
(59,776,o),
(74,771,o),
(74,759,cs),
(74,446,ls),
(74,434,o),
(59,429,o),
(49,429,cs),
(39,429,o),
(26,435,o),
(26,446,cs),
(26,759,ls),
(26,770,o),
(39,776,o),
(49,776,cs)
);
}
);
width = 500;
}
);
},
{
color = (154,153,255,255);
glyphname = C.part2;
layers = (
{
anchors = (
{
name = _bottom;
pos = (249,751);
},
{
name = bottom;
pos = (249,350);
}
);
layerId = "528058B1-8975-4609-A45E-1B73D3A96491";
shapes = (
{
closed = 1;
nodes = (
(460,776,o),
(474,771,o),
(474,759,cs),
(474,441,l),
(367,334,ls),
(362,329,o),
(356,329,o),
(349,329,cs),
(337,329,o),
(327,339,o),
(327,351,cs),
(327,358,o),
(327,364,o),
(332,369,cs),
(426,466,l),
(426,759,ls),
(426,770,o),
(441,776,o),
(450,776,cs)
);
},
{
closed = 1;
nodes = (
(64,776,o),
(74,766,o),
(74,752,cs),
(74,737,o),
(62,729,o),
(50,729,cs),
(37,729,o),
(26,739,o),
(26,752,cs),
(26,764,o),
(35,776,o),
(50,776,cs)
);
},
{
closed = 1;
nodes = (
(59,576,o),
(74,571,o),
(74,559,cs),
(74,346,ls),
(74,334,o),
(59,329,o),
(49,329,cs),
(39,329,o),
(26,335,o),
(26,346,cs),
(26,559,ls),
(26,570,o),
(39,576,o),
(49,576,cs)
);
}
);
width = 500;
}
);
},
{
color = (154,153,255,255);
glyphname = D.part2;
layers = (
{
anchors = (
{
name = _bottom;
pos = (249,751);
},
{
name = bottom;
pos = (249,350);
}
);
guides = (
{
pos = (0,350);
}
);
layerId = "528058B1-8975-4609-A45E-1B73D3A96491";
shapes = (
{
closed = 1;
nodes = (
(459,776,o),
(474,771,o),
(474,759,cs),
(474,491,l),
(317,334,ls),
(312,329,o),
(306,329,o),
(299,329,cs),
(287,329,o),
(277,339,o),
(277,351,cs),
(277,358,o),
(277,364,o),
(282,369,cs),
(426,514,l),
(426,759,ls),
(426,769,o),
(441,776,o),
(450,776,cs)
);
},
{
closed = 1;
nodes = (
(264,776,o),
(274,766,o),
(274,751,cs),
(274,745,o),
(273,740,o),
(269,736,cs),
(66,534,ls),
(61,529,o),
(55,529,o),
(49,529,cs),
(37,529,o),
(26,539,o),
(26,551,cs),
(26,558,o),
(26,564,o),
(31,569,cs),
(234,771,ls),
(238,775,o),
(243,776,o),
(249,776,cs)
);
},
{
closed = 1;
nodes = (
(64,376,o),
(74,366,o),
(74,352,cs),
(74,337,o),
(62,329,o),
(50,329,cs),
(37,329,o),
(26,339,o),
(26,352,cs),
(26,364,o),
(35,376,o),
(50,376,cs)
);
}
);
width = 500;
}
);
},
{
color = (154,153,255,255);
glyphname = E.part2;
layers = (
{
anchors = (
{
name = _bottom;
pos = (249,751);
},
{
name = bottom;
pos = (249,350);
}
);
guides = (
{
pos = (0,350);
}
);
layerId = "528058B1-8975-4609-A45E-1B73D3A96491";
shapes = (
{
closed = 1;
nodes = (
(464,776,o),
(474,766,o),
(474,752,cs),
(474,737,o),
(462,728,o),
(450,728,cs),
(437,728,o),
(426,739,o),
(426,752,cs),
(426,764,o),
(435,776,o),
(450,776,cs)
);
},
{
closed = 1;
nodes = (
(461,576,o),
(474,571,o),
(474,558,cs),
(474,346,ls),
(474,333,o),
(461,328,o),
(450,328,cs),
(439,328,o),
(426,335,o),
(426,346,cs),
(426,558,ls),
(426,569,o),
(439,576,o),
(450,576,cs)
);
},
{
closed = 1;
nodes = (
(260,676,o),
(274,671,o),
(274,658,cs),
(274,446,ls),
(274,433,o),
(260,428,o),
(249,428,cs),
(239,428,o),
(226,434,o),
(226,446,cs),
(226,658,ls),
(226,670,o),
(239,676,o),
(249,676,cs)
);
},
{
closed = 1;
nodes = (
(64,776,o),
(74,766,o),
(74,751,cs),
(74,737,o),
(62,728,o),
(49,728,cs),
(36,728,o),
(26,738,o),
(26,751,cs),
(26,764,o),
(35,776,o),
(49,776,cs)
);
},
{
closed = 1;
nodes = (
(60,576,o),
(74,571,o),
(74,558,cs),
(74,346,ls),
(74,333,o),
(60,328,o),
(49,328,cs),
(39,328,o),
(26,334,o),
(26,346,cs),
(26,558,ls),
(26,570,o),
(39,576,o),
(49,576,cs)
);
}
);
width = 500;
}
);
},
{
color = (154,153,255,255);
glyphname = F.part2;
layers = (
{
anchors = (
{
name = _bottom;
pos = (249,751);
},
{
name = bottom;
pos = (249,350);
}
);
guides = (
{
pos = (0,350);
}
);
layerId = "528058B1-8975-4609-A45E-1B73D3A96491";
shapes = (
{
closed = 1;
nodes = (
(464,776,o),
(474,766,o),
(474,751,cs),
(474,737,o),
(462,728,o),
(450,728,cs),
(437,728,o),
(427,739,o),
(427,751,cs),
(427,764,o),
(435,776,o),
(450,776,cs)
);
},
{
closed = 1;
nodes = (
(460,576,o),
(474,571,o),
(474,558,cs),
(474,346,ls),
(474,333,o),
(460,328,o),
(450,328,cs),
(439,328,o),
(427,335,o),
(427,346,cs),
(427,558,ls),
(427,569,o),
(439,576,o),
(450,576,cs)
);
},
{
closed = 1;
nodes = (
(260,576,o),
(274,571,o),
(274,558,cs),
(274,346,ls),
(274,333,o),
(260,328,o),
(249,328,cs),
(240,328,o),
(224,336,o),
(224,346,cs),
(224,488,l),
(66,333,ls),
(61,328,o),
(55,328,o),
(49,328,cs),
(36,328,o),
(26,338,o),
(26,351,cs),
(26,357,o),
(26,363,o),
(31,368,cs),
(234,571,ls),
(238,575,o),
(243,576,o),
(249,576,cs)
);
}
);
width = 500;
}
);
},
{
color = (154,153,255,255);
glyphname = G.part2;
layers = (
{
anchors = (
{
name = _bottom;
pos = (249,751);
},
{
name = bottom;
pos = (249,350);
}
);
guides = (
{
pos = (0,350);
}
);
layerId = "528058B1-8975-4609-A45E-1B73D3A96491";
shapes = (
{
closed = 1;
nodes = (
(460,776,o),
(474,771,o),
(474,758,cs),
(474,546,ls),
(474,533,o),
(460,528,o),
(450,528,cs),
(439,528,o),
(426,535,o),
(426,546,cs),
(426,758,ls),
(426,769,o),
(439,776,o),
(450,776,cs)
);
},
{
closed = 1;
nodes = (
(464,376,o),
(474,366,o),
(474,352,cs),
(474,337,o),
(462,328,o),
(450,328,cs),
(437,328,o),
(426,339,o),
(426,352,cs),
(426,364,o),
(435,376,o),
(450,376,cs)
);
},
{
closed = 1;
nodes = (
(260,576,o),
(274,571,o),
(274,558,cs),
(274,346,ls),
(274,333,o),
(260,328,o),
(249,328,cs),
(239,328,o),
(226,334,o),
(226,346,cs),
(226,558,ls),
(226,570,o),
(239,576,o),
(249,576,cs)
);
},
{
closed = 1;
nodes = (
(63,776,o),
(73,766,o),
(73,752,cs),
(73,737,o),
(61,728,o),
(49,728,cs),
(35,728,o),
(25,738,o),
(25,752,cs),
(25,764,o),
(34,776,o),
(49,776,cs)
);
},
{
closed = 1;
nodes = (
(60,576,o),
(74,571,o),
(74,558,cs),
(74,346,ls),
(74,333,o),
(60,328,o),
(49,328,cs),
(39,328,o),
(26,334,o),
(26,346,cs),
(26,558,ls),
(26,570,o),
(39,576,o),
(49,576,cs)
);
}
);
width = 500;
}
);
},
{
color = (154,153,255,255);
glyphname = H.part2;
layers = (
{
anchors = (
{
name = _bottom;
pos = (249,751);
},
{
name = bottom;
pos = (249,350);
}
);
layerId = "528058B1-8975-4609-A45E-1B73D3A96491";
shapes = (
{
closed = 1;
nodes = (
(464,576,o),
(474,566,o),
(474,551,cs),
(474,545,o),
(473,540,o),
(469,536,cs),
(266,333,ls),
(261,328,o),
(255,328,o),
(249,328,cs),
(240,328,o),
(225,336,o),
(225,346,cs),
(225,589,l),
(66,433,ls),
(61,428,o),
(55,428,o),
(49,428,cs),
(36,428,o),
(26,438,o),
(26,451,cs),
(26,457,o),
(26,463,o),
(31,468,cs),
(234,671,ls),
(238,675,o),
(243,676,o),
(249,676,cs),
(258,676,o),
(273,669,o),
(273,658,cs),
(273,415,l),
(434,571,ls),
(438,575,o),
(443,576,o),
(449,576,cs)
);
},
{
closed = 1;
nodes = (
(63,776,o),
(73,766,o),
(73,752,cs),
(73,737,o),
(61,728,o),
(49,728,cs),
(35,728,o),
(25,738,o),
(25,752,cs),
(25,764,o),
(34,776,o),
(49,776,cs)
);
}
);
width = 500;
}
);
},
{
color = (154,153,255,255);
glyphname = I.part2;
layers = (
{
anchors = (
{
name = _bottom;
pos = (249,751);
},
{
name = bottom;
pos = (249,350);
}
);
guides = (
{
pos = (0,350);
}
);
layerId = "528058B1-8975-4609-A45E-1B73D3A96491";
shapes = (
{
closed = 1;
nodes = (
(460,776,o),
(474,771,o),
(474,758,cs),
(474,548,ls),
(474,533,o),
(461,528,o),
(450,528,cs),
(439,528,o),
(426,533,o),
(426,548,cs),
(426,690,l),
(66,333,ls),
(61,328,o),
(55,328,o),
(49,328,cs),
(39,328,o),
(26,334,o),
(26,346,cs),
(26,558,ls),
(26,570,o),
(39,576,o),
(49,576,cs),
(58,576,o),
(74,569,o),
(74,558,cs),
(74,416,l),
(434,771,ls),
(438,775,o),
(443,776,o),
(449,776,cs)
);
},
{
closed = 1;
nodes = (
(464,376,o),
(474,366,o),
(474,351,cs),
(474,337,o),
(462,328,o),
(449,328,cs),
(437,328,o),
(426,339,o),
(426,351,cs),
(426,364,o),
(435,376,o),
(449,376,cs)
);
},
{
closed = 1;
nodes = (
(64,776,o),
(74,766,o),
(74,752,cs),
(74,737,o),
(64,728,o),
(50,728,cs),
(36,728,o),
(26,738,o),
(26,752,cs),
(26,764,o),
(35,776,o),
(49,776,cs)
);
}
);
width = 500;
}
);
},
{
color = (154,153,255,255);
glyphname = J.part2;
layers = (
{
anchors = (
{
name = _bottom;
pos = (249,751);
},
{
name = bottom;
pos = (249,350);
}
);
layerId = "528058B1-8975-4609-A45E-1B73D3A96491";
shapes = (
{
closed = 1;
nodes = (
(464,776,o),
(474,766,o),
(474,751,cs),
(474,745,o),
(473,740,o),
(469,736,cs),
(67,334,ls),
(62,329,o),
(56,329,o),
(49,329,cs),
(40,329,o),
(27,335,o),
(27,346,cs),
(27,559,ls),
(27,570,o),
(40,576,o),
(49,576,cs),
(58,576,o),
(74,570,o),
(74,559,cs),
(74,416,l),
(434,771,ls),
(438,775,o),
(443,776,o),
(449,776,cs)
);
},
{
closed = 1;
nodes = (
(63,776,o),
(73,766,o),
(73,752,cs),
(73,737,o),
(61,729,o),
(49,729,cs),
(36,729,o),
(26,739,o),
(26,752,cs),
(26,764,o),
(34,776,o),
(49,776,cs)
);
}
);
width = 500;
}
);
},
{
color = (154,153,255,255);
glyphname = K.part2;
layers = (
{
anchors = (
{
name = _bottom;
pos = (249,751);
},
{
name = bottom;
pos = (249,350);
}
);
layerId = "528058B1-8975-4609-A45E-1B73D3A96491";
shapes = (
{
closed = 1;
nodes = (
(355,776,o),
(361,776,o),
(366,771,cs),
(469,668,ls),
(474,663,o),
(474,657,o),
(474,651,cs),
(474,637,o),
(462,628,o),
(449,628,cs),
(443,628,o),
(438,629,o),
(434,633,cs),
(331,736,ls),
(327,740,o),
(326,745,o),
(326,751,cs),
(326,764,o),
(335,776,o),
(349,776,cs)
);
},
{
closed = 1;
nodes = (
(255,576,o),
(261,576,o),
(266,571,cs),
(469,368,ls),
(474,363,o),
(474,357,o),
(474,351,cs),
(474,337,o),
(462,328,o),
(449,328,cs),
(443,328,o),
(438,329,o),
(434,333,cs),
(249,513,l),
(66,333,ls),
(61,328,o),
(55,328,o),
(49,328,cs),
(36,328,o),
(26,338,o),
(26,351,cs),
(26,357,o),
(26,363,o),
(31,368,cs),
(234,571,ls),
(238,575,o),
(243,576,o),
(249,576,cs)
);
},
{
closed = 1;
nodes = (
(63,776,o),
(73,766,o),
(73,752,cs),
(73,737,o),
(61,728,o),
(49,728,cs),
(35,728,o),
(25,738,o),
(25,752,cs),
(25,764,o),
(34,776,o),
(49,776,cs)
);
}
);
width = 500;
}
);
},
{
color = (154,153,255,255);
glyphname = L.part2;
layers = (
{
anchors = (
{
name = _bottom;
pos = (249,751);
},
{
name = bottom;
pos = (249,350);
}
);
guides = (
{
pos = (0,350);
}
);
layerId = "528058B1-8975-4609-A45E-1B73D3A96491";
shapes = (
{
closed = 1;
nodes = (
(464,776,o),
(474,766,o),
(474,751,cs),
(474,745,o),
(473,740,o),
(469,736,cs),
(274,541,l),
(274,346,ls),
(274,335,o),
(258,328,o),
(249,328,cs),
(239,328,o),
(226,334,o),
(226,346,cs),
(226,563,l),
(434,771,ls),
(438,775,o),
(443,776,o),
(449,776,cs)
);
},
{
closed = 1;
nodes = (
(63,776,o),
(73,766,o),
(73,752,cs),
(73,737,o),
(61,728,o),
(49,728,cs),
(35,728,o),
(25,738,o),
(25,752,cs),
(25,764,o),
(34,776,o),
(49,776,cs)
);
},
{
closed = 1;
nodes = (
(60,576,o),
(74,571,o),
(74,558,cs),
(74,346,ls),
(74,333,o),
(60,328,o),
(49,328,cs),
(39,328,o),
(26,334,o),
(26,346,cs),
(26,558,ls),
(26,570,o),
(39,576,o),
(49,576,cs)
);
}
);
width = 500;
}
);
},
{
color = (154,153,255,255);
glyphname = M.part2;
layers = (
{
anchors = (
{
name = _bottom;
pos = (249,751);
},
{
name = bottom;
pos = (249,350);
}
);
guides = (
{
pos = (0,350);
}
);
layerId = "528058B1-8975-4609-A45E-1B73D3A96491";
shapes = (
{
closed = 1;
nodes = (
(464,776,o),
(474,766,o),
(474,751,cs),
(474,745,o),
(473,740,o),
(469,736,cs),
(289,551,l),
(469,368,ls),
(474,363,o),
(474,357,o),
(474,351,cs),
(474,337,o),
(462,328,o),
(449,328,cs),
(443,328,o),
(438,329,o),
(434,333,cs),
(231,536,ls),
(227,540,o),
(226,545,o),
(226,551,cs),
(226,557,o),
(226,563,o),
(231,568,cs),
(434,771,ls),
(438,775,o),
(443,776,o),
(449,776,cs)
);
},
{
closed = 1;
nodes = (
(55,576,o),
(61,576,o),
(66,571,cs),
(269,368,ls),
(274,363,o),
(274,357,o),
(274,351,cs),
(274,337,o),
(262,328,o),
(249,328,cs),
(243,328,o),
(238,329,o),
(234,333,cs),
(31,536,ls),
(27,540,o),
(26,545,o),
(26,551,cs),
(26,564,o),
(35,576,o),
(49,576,cs)
);
},
{
closed = 1;
nodes = (
(64,776,o),
(74,766,o),
(74,751,cs),
(74,737,o),
(62,728,o),
(50,728,cs),
(36,728,o),
(26,738,o),
(26,751,cs),
(26,764,o),
(35,776,o),
(50,776,cs)
);
}
);
width = 500;
}
);
},
{
color = (154,153,255,255);
glyphname = N.part2;
layers = (
{
anchors = (
{
name = _bottom;
pos = (249,751);
},
{
name = bottom;
pos = (249,350);
}
);
guides = (
{
pos = (0,350);
}
);
layerId = "528058B1-8975-4609-A45E-1B73D3A96491";
shapes = (
{
closed = 1;
nodes = (
(464,776,o),
(474,766,o),
(474,751,cs),
(474,745,o),
(473,740,o),
(469,736,cs),
(66,333,ls),
(61,328,o),
(55,328,o),
(49,328,cs),
(36,328,o),
(26,338,o),
(26,351,cs),
(26,357,o),
(26,363,o),
(31,368,cs),
(434,771,ls),
(438,775,o),
(443,776,o),
(449,776,cs)
);
},
{
closed = 1;
nodes = (
(464,476,o),
(474,466,o),
(474,451,cs),
(474,445,o),
(473,440,o),
(469,436,cs),
(366,333,ls),
(361,328,o),
(355,328,o),
(349,328,cs),
(336,328,o),
(326,338,o),
(326,351,cs),
(326,357,o),
(326,363,o),
(331,368,cs),
(434,471,ls),
(438,475,o),
(443,476,o),
(449,476,cs)
);
},
{
closed = 1;
nodes = (
(63,776,o),
(73,766,o),
(73,752,cs),
(73,737,o),
(61,728,o),
(49,728,cs),
(35,728,o),
(25,738,o),
(25,752,cs),
(25,764,o),
(34,776,o),
(49,776,cs)
);
}
);
width = 500;
}
);
},
{
color = (154,153,255,255);
glyphname = O.part2;
layers = (
{
anchors = (
{
name = _bottom;
pos = (249,741);
},
{
name = bottom;
pos = (249,350);
}
);
layerId = "528058B1-8975-4609-A45E-1B73D3A96491";
shapes = (
{
closed = 1;
nodes = (
(255,771,o),
(261,771,o),
(266,766,cs),
(469,563,ls),
(474,558,o),
(477,552,o),
(477,546,cs),
(477,540,o),
(473,535,o),
(469,531,cs),
(366,428,ls),
(361,423,o),
(355,423,o),
(349,423,cs),
(336,423,o),
(326,433,o),
(326,446,cs),
(326,452,o),
(326,458,o),
(331,463,cs),
(412,548,l),
(249,708,l),
(89,548,l),
(169,463,ls),
(174,458,o),
(174,452,o),
(174,446,cs),
(174,432,o),
(162,423,o),
(149,423,cs),
(143,423,o),
(138,424,o),
(134,428,cs),
(31,531,ls),
(27,535,o),
(23,540,o),
(23,546,cs),
(23,552,o),
(26,558,o),
(31,563,cs),
(234,766,ls),
(238,770,o),
(243,771,o),
(249,771,cs)
);
},
{
closed = 1;
nodes = (
(264,371,o),
(274,361,o),
(274,347,cs),
(274,332,o),
(262,323,o),
(250,323,cs),
(236,323,o),
(226,333,o),
(226,346,cs),
(226,359,o),
(235,371,o),
(251,371,cs)
);
}
);
width = 500;
}
);
},
{
color = (154,153,255,255);
glyphname = P.part2;
layers = (
{
anchors = (
{
name = _bottom;
pos = (249,751);
},
{
name = bottom;
pos = (249,350);
}
);
guides = (
{
pos = (0,350);
}
);
layerId = "528058B1-8975-4609-A45E-1B73D3A96491";
shapes = (
{
closed = 1;
nodes = (
(464,776,o),
(474,766,o),
(474,751,cs),
(474,737,o),
(462,728,o),
(449,728,cs),
(437,728,o),
(427,739,o),
(427,751,cs),
(427,764,o),
(435,776,o),
(449,776,cs)
);
},
{
closed = 1;
nodes = (
(289,551,l),
(469,368,ls),
(474,363,o),
(474,357,o),
(474,351,cs),
(474,337,o),
(462,328,o),
(449,328,cs),
(443,328,o),
(438,329,o),
(434,333,cs),
(249,513,l),
(66,333,ls),
(61,328,o),
(55,328,o),
(49,328,cs),
(36,328,o),
(26,338,o),
(26,351,cs),
(26,357,o),
(26,363,o),
(31,368,cs),
(334,671,ls),
(338,675,o),
(343,676,o),
(349,676,cs),
(364,676,o),
(374,666,o),
(374,651,cs),
(374,645,o),
(373,640,o),
(369,636,cs)
);
}
);
width = 500;
}
);
},
{
color = (154,153,255,255);
glyphname = Q.part2;
layers = (
{
anchors = (
{
name = _bottom;
pos = (249,751);
},
{
name = bottom;
pos = (249,350);
}
);
layerId = "528058B1-8975-4609-A45E-1B73D3A96491";
shapes = (
{
closed = 1;
nodes = (
(255,777,o),
(261,777,o),
(266,772,cs),
(468,570,ls),
(473,565,o),
(473,559,o),
(473,552,cs),
(473,546,o),
(472,541,o),
(468,537,cs),
(266,335,ls),
(261,330,o),
(255,330,o),
(248,330,cs),
(236,330,o),
(226,340,o),
(226,352,cs),
(226,359,o),
(226,365,o),
(231,370,cs),
(411,555,l),
(251,715,l),
(66,535,ls),
(61,530,o),
(55,530,o),
(48,530,cs),
(36,530,o),
(26,540,o),
(26,552,cs),
(26,559,o),
(26,565,o),
(31,570,cs),
(233,772,ls),
(237,776,o),
(242,777,o),
(248,777,cs)
);
},
{
closed = 1;
nodes = (
(63,377,o),
(73,367,o),
(73,353,cs),
(73,338,o),
(61,330,o),
(49,330,cs),
(36,330,o),
(26,340,o),
(26,353,cs),
(26,365,o),
(34,377,o),
(49,377,cs)
);
}
);
width = 500;
}
);
},
{
color = (154,153,255,255);
glyphname = R.part2;
layers = (
{
anchors = (
{
name = _bottom;
pos = (249,751);
},
{
name = bottom;
pos = (249,350);
}
);
layerId = "528058B1-8975-4609-A45E-1B73D3A96491";
shapes = (
{
closed = 1;
nodes = (
(458,777,o),
(473,772,o),
(473,760,cs),
(473,547,ls),
(473,535,o),
(458,530,o),
(448,530,cs),
(439,530,o),
(426,536,o),
(426,547,cs),
(426,760,ls),
(426,771,o),
(439,777,o),
(448,777,cs)
);
},
{
closed = 1;
nodes = (
(463,377,o),
(473,367,o),
(473,353,cs),
(473,338,o),
(461,330,o),
(449,330,cs),
(436,330,o),
(426,340,o),
(426,353,cs),
(426,365,o),
(434,377,o),
(449,377,cs)
);
},
{
closed = 1;
nodes = (
(258,577,o),
(273,572,o),
(273,560,cs),
(273,347,ls),
(273,335,o),
(258,330,o),
(248,330,cs),
(240,330,o),
(223,337,o),
(223,347,cs),
(223,490,l),
(66,335,ls),
(61,330,o),
(55,330,o),
(48,330,cs),
(36,330,o),
(26,340,o),
(26,352,cs),
(26,359,o),
(26,365,o),
(31,370,cs),
(233,572,ls),
(237,576,o),
(242,577,o),
(248,577,cs)
);
},
{
closed = 1;
nodes = (
(63,777,o),
(73,767,o),
(73,753,cs),
(73,738,o),
(61,730,o),
(49,730,cs),
(36,730,o),
(26,740,o),
(26,753,cs),
(26,765,o),
(34,777,o),
(49,777,cs)
);
}
);
width = 500;
}
);
},
{
color = (154,153,255,255);
glyphname = S.part2;
layers = (
{
anchors = (
{
name = _bottom;
pos = (249,751);
},
{
name = bottom;
pos = (249,350);
}
);
layerId = "528058B1-8975-4609-A45E-1B73D3A96491";
shapes = (
{
closed = 1;
nodes = (
(255,776,o),
(262,776,o),
(267,771,cs),
(469,569,ls),
(474,564,o),
(474,558,o),
(474,551,cs),
(474,537,o),
(462,529,o),
(449,529,cs),
(443,529,o),
(438,530,o),
(434,534,cs),
(274,689,l),
(274,346,ls),
(274,335,o),
(258,329,o),
(249,329,cs),
(243,329,o),
(238,330,o),
(234,334,cs),
(31,536,ls),
(27,540,o),
(26,545,o),
(26,551,cs),
(26,564,o),
(35,576,o),
(49,576,cs),
(55,576,o),
(61,576,o),
(66,571,cs),
(224,416,l),
(224,759,ls),
(224,769,o),
(241,776,o),
(249,776,cs)
);
},
{
closed = 1;
nodes = (
(464,376,o),
(474,366,o),
(474,352,cs),
(474,337,o),
(462,329,o),
(450,329,cs),
(437,329,o),
(427,339,o),
(427,352,cs),
(427,364,o),
(435,376,o),
(450,376,cs)
);
}
);
width = 500;
}
);
},
{
color = (154,153,255,255);
glyphname = T.part2;
layers = (
{
anchors = (
{
name = _bottom;
pos = (249,751);
},
{
name = bottom;
pos = (249,350);
}
);
guides = (
{
pos = (0,350);
}
);
layerId = "528058B1-8975-4609-A45E-1B73D3A96491";
shapes = (
{
closed = 1;
nodes = (
(464,776,o),
(474,766,o),
(474,752,cs),
(474,737,o),
(462,729,o),
(450,729,cs),
(437,729,o),
(427,739,o),
(427,752,cs),
(427,764,o),
(435,776,o),
(450,776,cs)
);
},
{
closed = 1;
nodes = (
(459,576,o),
(474,571,o),
(474,559,cs),
(474,346,ls),
(474,334,o),
(459,329,o),
(450,329,cs),
(440,329,o),
(427,335,o),
(427,346,cs),
(427,559,ls),
(427,570,o),
(440,576,o),
(450,576,cs)
);
},
{
closed = 1;
nodes = (
(364,676,o),
(374,666,o),
(374,651,cs),
(374,645,o),
(373,640,o),
(369,636,cs),
(66,334,ls),
(61,329,o),
(55,329,o),
(49,329,cs),
(37,329,o),
(26,339,o),
(26,351,cs),
(26,358,o),
(26,364,o),
(31,369,cs),
(334,671,ls),
(338,675,o),
(343,676,o),
(349,676,cs)
);
}
);
width = 500;
}
);
},
{
color = (154,153,255,255);
glyphname = U.part2;
layers = (
{
anchors = (
{
name = _bottom;
pos = (249,751);
},
{
name = bottom;
pos = (249,350);
}
);
guides = (
{
pos = (0,350);
}
);
layerId = "528058B1-8975-4609-A45E-1B73D3A96491";
shapes = (
{
closed = 1;
nodes = (
(466,574,o),
(476,564,o),
(476,550,cs),
(476,535,o),
(464,526,o),
(452,526,cs),
(439,526,o),
(429,537,o),
(429,550,cs),
(429,562,o),
(437,574,o),
(452,574,cs)
);
},
{
closed = 1;
nodes = (
(257,774,o),
(263,774,o),
(268,769,cs),
(371,666,ls),
(376,661,o),
(376,655,o),
(376,649,cs),
(376,635,o),
(364,626,o),
(351,626,cs),
(345,626,o),
(340,627,o),
(336,631,cs),
(251,711,l),
(91,551,l),
(271,366,ls),
(276,361,o),
(276,355,o),
(276,349,cs),
(276,335,o),
(264,326,o),
(251,326,cs),
(245,326,o),
(240,327,o),
(236,331,cs),
(33,534,ls),
(29,538,o),
(24,543,o),
(24,549,cs),
(24,555,o),
(28,561,o),
(33,566,cs),
(236,769,ls),
(240,773,o),
(245,774,o),
(251,774,cs)
);
}
);
width = 500;
}
);
},
{
color = (154,153,255,255);
glyphname = V.part2;
layers = (
{
anchors = (
{
name = _bottom;
pos = (249,751);
},
{
name = bottom;
pos = (249,350);
}
);
layerId = "528058B1-8975-4609-A45E-1B73D3A96491";
shapes = (
{
closed = 1;
nodes = (
(306,375,l),
(200,375,l),
(200,725,l),
(306,725,l)
);
},
{
closed = 1;
nodes = (
(229,488,l),
(229,449,l),
(277,449,l),
(277,488,l)
);
},
{
closed = 1;
nodes = (
(229,548,l),
(229,509,l),
(277,509,l),
(277,548,l),
(249,548,l),
(249,528,l),
(258,528,l),
(258,538,l),
(268,538,l),
(268,518,l),
(239,518,l),
(239,548,l)
);
},
{
closed = 1;
nodes = (
(229,410,l),
(229,400,l),
(277,400,l),
(277,410,l),
(245,410,l),
(277,429,l),
(277,439,l),
(229,439,l),
(229,430,l),
(262,430,l)
);
},
{
closed = 1;
nodes = (
(229,656,l),
(229,622,l),
(277,622,l),
(277,631,l),
(258,631,l),
(258,656,l)
);
},
{
closed = 1;
nodes = (
(229,676,l),
(229,666,l),
(277,666,l),
(277,676,l),
(256,676,l),
(256,691,l),
(277,691,l),
(277,700,l),
(229,700,l),
(229,691,l),
(246,691,l),
(246,676,l)
);
},
{
closed = 1;
nodes = (
(229,587,l),
(229,578,l),
(258,578,l),
(258,602,l),
(277,602,l),
(277,612,l),
(229,612,l),
(229,602,l),
(249,602,l),
(249,587,l)
);
},
{
closed = 1;
nodes = (
(229,567,l),
(229,558,l),
(277,558,l),
(277,592,l),
(268,592,l),
(268,567,l)
);
},
{
closed = 1;
nodes = (
(268,459,l),
(239,459,l),
(239,479,l),
(268,479,l)
);
},
{
closed = 1;
nodes = (
(249,631,l),
(239,631,l),
(239,646,l),
(249,646,l)
);
}
);
width = 500;
}
);
},
{
color = (154,153,255,255);
glyphname = W.part2;
layers = (
{
anchors = (
{
name = _bottom;
pos = (249,751);
},
{
name = bottom;
pos = (249,350);
}
);
guides = (
{
pos = (0,350);
}
);
layerId = "528058B1-8975-4609-A45E-1B73D3A96491";
shapes = (
{
closed = 1;
nodes = (
(464,776,o),
(474,766,o),
(474,751,cs),
(474,737,o),
(462,728,o),
(449,728,cs),
(437,728,o),
(427,739,o),
(427,751,cs),
(427,764,o),
(435,776,o),
(449,776,cs)
);
},
{
closed = 1;
nodes = (
(464,476,o),
(474,466,o),
(474,451,cs),
(474,445,o),
(473,440,o),
(469,436,cs),
(366,333,ls),
(361,328,o),
(355,328,o),
(349,328,cs),
(336,328,o),
(326,338,o),
(326,351,cs),
(326,357,o),
(326,363,o),
(331,368,cs),
(434,471,ls),
(438,475,o),
(443,476,o),
(449,476,cs)
);
},
{
closed = 1;
nodes = (
(55,776,o),
(61,776,o),
(66,771,cs),
(269,568,ls),
(274,563,o),
(274,557,o),
(274,551,cs),
(274,545,o),
(273,540,o),
(269,536,cs),
(66,333,ls),
(61,328,o),
(55,328,o),
(49,328,cs),
(36,328,o),
(26,338,o),
(26,351,cs),
(26,357,o),
(26,363,o),
(31,368,cs),
(211,551,l),
(31,736,ls),
(27,740,o),
(26,745,o),
(26,751,cs),
(26,764,o),
(35,776,o),
(49,776,cs)
);
}
);
width = 500;
}
);
},
{
color = (154,153,255,255);
glyphname = X.part2;
layers = (
{
anchors = (
{
name = _bottom;
pos = (249,751);
},
{
name = bottom;
pos = (249,350);
}
);
layerId = "528058B1-8975-4609-A45E-1B73D3A96491";
shapes = (
{
closed = 1;
nodes = (
(464,776,o),
(474,766,o),
(474,751,cs),
(474,745,o),
(473,740,o),
(469,736,cs),
(367,634,ls),
(362,629,o),
(356,629,o),
(349,629,cs),
(337,629,o),
(327,639,o),
(327,651,cs),
(327,658,o),
(327,664,o),
(332,669,cs),
(434,771,ls),
(438,775,o),
(443,776,o),
(449,776,cs)
);
},
{
closed = 1;
nodes = (
(464,376,o),
(474,366,o),
(474,352,cs),
(474,337,o),
(462,329,o),
(450,329,cs),
(437,329,o),
(427,339,o),
(427,352,cs),
(427,364,o),
(435,376,o),
(450,376,cs)
);
},
{
closed = 1;
nodes = (
(155,676,o),
(161,676,o),
(166,671,cs),
(269,569,ls),
(274,564,o),
(274,558,o),
(274,551,cs),
(274,545,o),
(273,540,o),
(269,536,cs),
(66,334,ls),
(61,329,o),
(55,329,o),
(49,329,cs),
(37,329,o),
(26,339,o),
(26,351,cs),
(26,358,o),
(26,364,o),
(31,369,cs),
(211,551,l),
(131,636,ls),
(127,640,o),
(126,645,o),
(126,651,cs),
(126,664,o),
(135,676,o),
(149,676,cs)
);
}
);
width = 500;
}
);
},
{
color = (154,153,255,255);
glyphname = Y.part2;
layers = (
{
anchors = (
{
name = _bottom;
pos = (249,751);
},
{
name = bottom;
pos = (249,350);
}
);
guides = (
{
pos = (0,350);
}
);
layerId = "528058B1-8975-4609-A45E-1B73D3A96491";
shapes = (
{
closed = 1;
nodes = (
(464,776,o),
(474,766,o),
(474,751,cs),
(474,745,o),
(473,740,o),
(469,736,cs),
(366,633,ls),
(361,628,o),
(355,628,o),
(349,628,cs),
(336,628,o),
(326,638,o),
(326,651,cs),
(326,657,o),
(326,663,o),
(331,668,cs),
(434,771,ls),
(438,775,o),
(443,776,o),
(449,776,cs)
);
},
{
closed = 1;
nodes = (
(464,376,o),
(474,366,o),
(474,351,cs),
(474,337,o),
(462,328,o),
(449,328,cs),
(437,328,o),
(427,339,o),
(427,351,cs),
(427,364,o),
(435,376,o),
(449,376,cs)
);
},
{
closed = 1;
nodes = (
(55,776,o),
(61,776,o),
(66,771,cs),
(369,468,ls),
(374,463,o),
(374,457,o),
(374,451,cs),
(374,437,o),
(362,428,o),
(349,428,cs),
(343,428,o),
(338,429,o),
(334,433,cs),
(31,736,ls),
(27,740,o),
(26,745,o),
(26,751,cs),
(26,764,o),
(35,776,o),
(49,776,cs)
);
},
{
closed = 1;
nodes = (
(164,476,o),
(174,466,o),
(174,451,cs),
(174,445,o),
(173,440,o),
(169,436,cs),
(66,333,ls),
(61,328,o),
(55,328,o),
(49,328,cs),
(36,328,o),
(26,338,o),
(26,351,cs),
(26,357,o),
(26,363,o),
(31,368,cs),
(134,471,ls),
(138,475,o),
(143,476,o),
(149,476,cs)
);
}
);
width = 500;
}
);
},
{
color = (154,153,255,255);
glyphname = Z.part2;
layers = (
{
anchors = (
{
name = _bottom;
pos = (249,751);
},
{
name = bottom;
pos = (249,350);
}
);
layerId = "528058B1-8975-4609-A45E-1B73D3A96491";
shapes = (
{
closed = 1;
nodes = (
(464,776,o),
(474,766,o),
(474,752,cs),
(474,737,o),
(462,728,o),
(450,728,cs),
(437,728,o),
(426,739,o),
(426,752,cs),
(426,764,o),
(435,776,o),
(450,776,cs)
);
},
{
closed = 1;
nodes = (
(460,676,o),
(474,671,o),
(474,658,cs),
(474,346,ls),
(474,333,o),
(460,328,o),
(449,328,cs),
(443,328,o),
(438,329,o),
(434,333,cs),
(131,636,ls),
(127,640,o),
(126,645,o),
(126,651,cs),
(126,664,o),
(135,676,o),
(149,676,cs),
(155,676,o),
(161,676,o),
(166,671,cs),
(426,414,l),
(426,658,ls),
(426,670,o),
(440,676,o),
(450,676,cs)
);
},
{
closed = 1;
nodes = (
(64,776,o),
(74,766,o),
(74,752,cs),
(74,737,o),
(62,728,o),
(50,728,cs),
(36,728,o),
(26,738,o),
(26,752,cs),
(26,764,o),
(35,776,o),
(50,776,cs)
);
},
{
closed = 1;
nodes = (
(60,576,o),
(74,571,o),
(74,558,cs),
(74,346,ls),
(74,333,o),
(60,328,o),
(49,328,cs),
(39,328,o),
(26,334,o),
(26,346,cs),
(26,558,ls),
(26,570,o),
(39,576,o),
(49,576,cs)
);
}
);
width = 500;
}
);
},
{
color = (154,153,255,255);
glyphname = end.part2;
layers = (
{
anchors = (
{
name = _bottom;
pos = (249,751);
}
);
layerId = "528058B1-8975-4609-A45E-1B73D3A96491";
shapes = (
{
closed = 1;
nodes = (
(426,765,o),
(436,776,o),
(450,776,cs),
(465,776,o),
(474,764,o),
(474,752,cs),
(474,739,o),
(464,729,o),
(450,729,cs),
(438,729,o),
(426,738,o),
(426,752,cs)
);
},
{
closed = 1;
nodes = (
(26,357,o),
(27,364,o),
(33,370,cs),
(334,671,ls),
(339,676,o),
(345,676,o),
(351,676,cs),
(365,676,o),
(374,664,o),
(374,651,cs),
(374,645,o),
(373,640,o),
(369,636,cs),
(68,335,ls),
(63,330,o),
(57,328,o),
(51,328,cs),
(38,328,o),
(26,337,o),
(26,351,cs)
);
}
);
width = 500;
}
);
},
{
color = (153,255,154,255);
glyphname = A.part3;
layers = (
{
anchors = (
{
name = _bottom;
pos = (249,750);
},
{
name = bottom;
pos = (249,350);
}
);
layerId = "528058B1-8975-4609-A45E-1B73D3A96491";
shapes = (
{
closed = 1;
nodes = (
(75,337,o),
(65,327,o),
(50,327,cs),
(36,327,o),
(27,339,o),
(27,351,cs),
(27,364,o),
(38,375,o),
(50,375,cs),
(63,375,o),
(75,366,o),
(75,351,cs)
);
},
{
closed = 1;
nodes = (
(475,746,o),
(475,740,o),
(470,735,cs),
(167,432,ls),
(162,427,o),
(156,427,o),
(150,427,cs),
(136,427,o),
(127,439,o),
(127,452,cs),
(127,458,o),
(128,463,o),
(132,467,cs),
(435,770,ls),
(439,774,o),
(444,775,o),
(450,775,cs),
(463,775,o),
(475,766,o),
(475,752,cs)
);
},
{
closed = 1;
nodes = (
(275,741,o),
(270,727,o),
(257,727,cs),
(45,727,ls),
(32,727,o),
(27,741,o),
(27,752,cs),
(27,762,o),
(33,775,o),
(45,775,cs),
(257,775,ls),
(269,775,o),
(275,762,o),
(275,752,cs)
);
}
);
width = 500;
}
);
},
{
color = (153,255,154,255);
glyphname = B.part3;
layers = (
{
anchors = (
{
name = _bottom;
pos = (249,751);
},
{
name = bottom;
pos = (249,350);
}
);
layerId = "528058B1-8975-4609-A45E-1B73D3A96491";
shapes = (
{
closed = 1;
nodes = (
(475,336,o),
(465,327,o),
(451,327,cs),
(436,327,o),
(428,339,o),
(428,350,cs),
(428,364,o),
(438,375,o),
(451,375,cs),
(463,375,o),
(475,366,o),
(475,351,cs)
);
},
{
closed = 1;
nodes = (
(275,341,o),
(270,327,o),
(258,327,cs),
(45,327,ls),
(33,327,o),
(28,341,o),
(28,351,cs),
(28,360,o),
(34,375,o),
(45,375,cs),
(258,375,ls),
(269,375,o),
(275,360,o),
(275,351,cs)
);
},
{
closed = 1;
nodes = (
(375,542,o),
(370,527,o),
(358,527,cs),
(45,527,ls),
(33,527,o),
(28,542,o),
(28,552,cs),
(28,562,o),
(34,575,o),
(45,575,cs),
(358,575,ls),
(369,575,o),
(375,562,o),
(375,552,cs)
);
},
{
closed = 1;
nodes = (
(475,742,o),
(470,727,o),
(458,727,cs),
(145,727,ls),
(133,727,o),
(128,742,o),
(128,752,cs),
(128,762,o),
(134,775,o),
(145,775,cs),
(458,775,ls),
(469,775,o),
(475,762,o),
(475,752,cs)
);
}
);
width = 500;
}
);
},
{
color = (153,255,154,255);
glyphname = C.part3;
layers = (
{
anchors = (
{
name = _bottom;
pos = (249,751);
},
{
name = bottom;
pos = (249,350);
}
);
layerId = "528058B1-8975-4609-A45E-1B73D3A96491";
shapes = (
{
closed = 1;
nodes = (
(475,341,o),
(470,327,o),
(458,327,cs),
(140,327,l),
(33,434,ls),
(28,439,o),
(28,445,o),
(28,452,cs),
(28,464,o),
(38,474,o),
(50,474,cs),
(57,474,o),
(63,474,o),
(68,469,cs),
(165,375,l),
(458,375,ls),
(469,375,o),
(475,360,o),
(475,351,cs)
);
},
{
closed = 1;
nodes = (
(475,737,o),
(465,727,o),
(451,727,cs),
(436,727,o),
(428,739,o),
(428,751,cs),
(428,764,o),
(438,775,o),
(451,775,cs),
(463,775,o),
(475,766,o),
(475,751,cs)
);
},
{
closed = 1;
nodes = (
(275,742,o),
(270,727,o),
(258,727,cs),
(45,727,ls),
(33,727,o),
(28,742,o),
(28,752,cs),
(28,762,o),
(34,775,o),
(45,775,cs),
(258,775,ls),
(269,775,o),
(275,762,o),
(275,752,cs)
);
}
);
width = 500;
}
);
},
{
color = (153,255,154,255);
glyphname = D.part3;
layers = (
{
anchors = (
{
name = _bottom;
pos = (249,751);
},
{
name = bottom;
pos = (249,350);
}
);
guides = (
{
pos = (0,350);
}
);
layerId = "528058B1-8975-4609-A45E-1B73D3A96491";
shapes = (
{
closed = 1;
nodes = (
(475,342,o),
(470,327,o),
(458,327,cs),
(190,327,l),
(33,484,ls),
(28,489,o),
(28,495,o),
(28,502,cs),
(28,514,o),
(38,524,o),
(50,524,cs),
(57,524,o),
(63,524,o),
(68,519,cs),
(213,375,l),
(458,375,ls),
(468,375,o),
(475,360,o),
(475,351,cs)
);
},
{
closed = 1;
nodes = (
(475,537,o),
(465,527,o),
(450,527,cs),
(444,527,o),
(439,528,o),
(435,532,cs),
(233,735,ls),
(228,740,o),
(228,746,o),
(228,752,cs),
(228,764,o),
(238,775,o),
(250,775,cs),
(257,775,o),
(263,775,o),
(268,770,cs),
(470,567,ls),
(474,563,o),
(475,558,o),
(475,552,cs)
);
},
{
closed = 1;
nodes = (
(75,737,o),
(65,727,o),
(51,727,cs),
(36,727,o),
(28,739,o),
(28,751,cs),
(28,764,o),
(38,775,o),
(51,775,cs),
(63,775,o),
(75,766,o),
(75,751,cs)
);
}
);
width = 500;
}
);
},
{
color = (153,255,154,255);
glyphname = E.part3;
layers = (
{
anchors = (
{
name = _bottom;
pos = (249,751);
},
{
name = bottom;
pos = (249,350);
}
);
guides = (
{
pos = (0,350);
}
);
layerId = "528058B1-8975-4609-A45E-1B73D3A96491";
shapes = (
{
closed = 1;
nodes = (
(475,337,o),
(465,327,o),
(451,327,cs),
(436,327,o),
(427,339,o),
(427,351,cs),
(427,364,o),
(438,375,o),
(451,375,cs),
(463,375,o),
(475,366,o),
(475,351,cs)
);
},
{
closed = 1;
nodes = (
(275,340,o),
(270,327,o),
(257,327,cs),
(45,327,ls),
(32,327,o),
(27,340,o),
(27,351,cs),
(27,362,o),
(34,375,o),
(45,375,cs),
(257,375,ls),
(268,375,o),
(275,362,o),
(275,351,cs)
);
},
{
closed = 1;
nodes = (
(375,541,o),
(370,527,o),
(357,527,cs),
(145,527,ls),
(132,527,o),
(127,541,o),
(127,552,cs),
(127,562,o),
(133,575,o),
(145,575,cs),
(357,575,ls),
(369,575,o),
(375,562,o),
(375,552,cs)
);
},
{
closed = 1;
nodes = (
(475,737,o),
(465,727,o),
(450,727,cs),
(436,727,o),
(427,739,o),
(427,752,cs),
(427,765,o),
(437,775,o),
(450,775,cs),
(463,775,o),
(475,766,o),
(475,752,cs)
);
},
{
closed = 1;
nodes = (
(275,741,o),
(270,727,o),
(257,727,cs),
(45,727,ls),
(32,727,o),
(27,741,o),
(27,752,cs),
(27,762,o),
(33,775,o),
(45,775,cs),
(257,775,ls),
(269,775,o),
(275,762,o),
(275,752,cs)
);
}
);
width = 500;
}
);
},
{
color = (153,255,154,255);
glyphname = F.part3;
layers = (
{
anchors = (
{
name = _bottom;
pos = (249,751);
},
{
name = bottom;
pos = (249,350);
}
);
guides = (
{
pos = (0,350);
}
);
layerId = "528058B1-8975-4609-A45E-1B73D3A96491";
shapes = (
{
closed = 1;
nodes = (
(475,337,o),
(465,327,o),
(450,327,cs),
(436,327,o),
(427,339,o),
(427,351,cs),
(427,364,o),
(438,374,o),
(450,374,cs),
(463,374,o),
(475,366,o),
(475,351,cs)
);
},
{
closed = 1;
nodes = (
(275,341,o),
(270,327,o),
(257,327,cs),
(45,327,ls),
(32,327,o),
(27,341,o),
(27,351,cs),
(27,362,o),
(34,374,o),
(45,374,cs),
(257,374,ls),
(268,374,o),
(275,362,o),
(275,351,cs)
);
},
{
closed = 1;
nodes = (
(275,541,o),
(270,527,o),
(257,527,cs),
(45,527,ls),
(32,527,o),
(27,541,o),
(27,552,cs),
(27,561,o),
(35,577,o),
(45,577,cs),
(187,577,l),
(32,735,ls),
(27,740,o),
(27,746,o),
(27,752,cs),
(27,765,o),
(37,775,o),
(50,775,cs),
(56,775,o),
(62,775,o),
(67,770,cs),
(270,567,ls),
(274,563,o),
(275,558,o),
(275,552,cs)
);
}
);
width = 500;
}
);
},
{
color = (153,255,154,255);
glyphname = G.part3;
layers = (
{
anchors = (
{
name = _bottom;
pos = (249,751);
},
{
name = bottom;
pos = (249,350);
}
);
guides = (
{
pos = (0,350);
}
);
layerId = "528058B1-8975-4609-A45E-1B73D3A96491";
shapes = (
{
closed = 1;
nodes = (
(475,340,o),
(470,326,o),
(457,326,cs),
(245,326,ls),
(232,326,o),
(227,340,o),
(227,350,cs),
(227,361,o),
(234,374,o),
(245,374,cs),
(457,374,ls),
(468,374,o),
(475,361,o),
(475,350,cs)
);
},
{
closed = 1;
nodes = (
(75,336,o),
(65,326,o),
(51,326,cs),
(36,326,o),
(27,338,o),
(27,350,cs),
(27,363,o),
(38,374,o),
(51,374,cs),
(63,374,o),
(75,365,o),
(75,350,cs)
);
},
{
closed = 1;
nodes = (
(275,540,o),
(270,526,o),
(257,526,cs),
(45,526,ls),
(32,526,o),
(27,540,o),
(27,551,cs),
(27,561,o),
(33,574,o),
(45,574,cs),
(257,574,ls),
(269,574,o),
(275,561,o),
(275,551,cs)
);
},
{
closed = 1;
nodes = (
(475,737,o),
(465,727,o),
(451,727,cs),
(436,727,o),
(427,739,o),
(427,751,cs),
(427,765,o),
(437,775,o),
(451,775,cs),
(463,775,o),
(475,766,o),
(475,751,cs)
);
},
{
closed = 1;
nodes = (
(275,740,o),
(270,726,o),
(257,726,cs),
(45,726,ls),
(32,726,o),
(27,740,o),
(27,751,cs),
(27,761,o),
(33,774,o),
(45,774,cs),
(257,774,ls),
(269,774,o),
(275,761,o),
(275,751,cs)
);
}
);
width = 500;
}
);
},
{
color = (153,255,154,255);
glyphname = H.part3;
layers = (
{
anchors = (
{
name = _bottom;
pos = (249,751);
},
{
name = bottom;
pos = (249,350);
}
);
layerId = "528058B1-8975-4609-A45E-1B73D3A96491";
shapes = (
{
closed = 1;
nodes = (
(275,336,o),
(265,326,o),
(250,326,cs),
(244,326,o),
(239,327,o),
(235,331,cs),
(32,534,ls),
(27,539,o),
(27,545,o),
(27,551,cs),
(27,560,o),
(35,575,o),
(45,575,cs),
(288,575,l),
(132,734,ls),
(127,739,o),
(127,745,o),
(127,751,cs),
(127,764,o),
(137,774,o),
(150,774,cs),
(156,774,o),
(162,774,o),
(167,769,cs),
(370,566,ls),
(374,562,o),
(375,557,o),
(375,551,cs),
(375,542,o),
(368,527,o),
(357,527,cs),
(114,527,l),
(270,366,ls),
(274,362,o),
(275,357,o),
(275,351,cs)
);
},
{
closed = 1;
nodes = (
(475,737,o),
(465,727,o),
(451,727,cs),
(436,727,o),
(427,739,o),
(427,751,cs),
(427,765,o),
(437,775,o),
(451,775,cs),
(463,775,o),
(475,766,o),
(475,751,cs)
);
}
);
width = 500;
}
);
},
{
color = (153,255,154,255);
glyphname = I.part3;
layers = (
{
anchors = (
{
name = _bottom;
pos = (249,751);
},
{
name = bottom;
pos = (249,350);
}
);
guides = (
{
pos = (0,350);
}
);
layerId = "528058B1-8975-4609-A45E-1B73D3A96491";
shapes = (
{
closed = 1;
nodes = (
(475,341,o),
(470,327,o),
(457,327,cs),
(247,327,ls),
(232,327,o),
(227,340,o),
(227,351,cs),
(227,362,o),
(232,375,o),
(247,375,cs),
(389,375,l),
(32,735,ls),
(27,740,o),
(27,746,o),
(27,752,cs),
(27,762,o),
(33,775,o),
(45,775,cs),
(257,775,ls),
(269,775,o),
(275,762,o),
(275,752,cs),
(275,743,o),
(268,727,o),
(257,727,cs),
(115,727,l),
(470,367,ls),
(474,363,o),
(475,358,o),
(475,352,cs)
);
},
{
closed = 1;
nodes = (
(75,337,o),
(65,327,o),
(50,327,cs),
(36,327,o),
(27,339,o),
(27,352,cs),
(27,364,o),
(38,375,o),
(50,375,cs),
(63,375,o),
(75,366,o),
(75,352,cs)
);
},
{
closed = 1;
nodes = (
(475,737,o),
(465,727,o),
(451,727,cs),
(436,727,o),
(427,737,o),
(427,751,cs),
(427,765,o),
(437,775,o),
(451,775,cs),
(463,775,o),
(475,766,o),
(475,752,cs)
);
}
);
width = 500;
}
);
},
{
color = (153,255,154,255);
glyphname = J.part3;
layers = (
{
anchors = (
{
name = _bottom;
pos = (249,751);
},
{
name = bottom;
pos = (249,350);
}
);
layerId = "528058B1-8975-4609-A45E-1B73D3A96491";
shapes = (
{
closed = 1;
nodes = (
(475,337,o),
(465,327,o),
(450,327,cs),
(444,327,o),
(439,328,o),
(435,332,cs),
(33,734,ls),
(28,739,o),
(28,745,o),
(28,752,cs),
(28,761,o),
(34,774,o),
(45,774,cs),
(258,774,ls),
(269,774,o),
(275,761,o),
(275,752,cs),
(275,743,o),
(269,727,o),
(258,727,cs),
(115,727,l),
(470,367,ls),
(474,363,o),
(475,358,o),
(475,352,cs)
);
},
{
closed = 1;
nodes = (
(475,738,o),
(465,728,o),
(451,728,cs),
(436,728,o),
(428,740,o),
(428,752,cs),
(428,765,o),
(438,775,o),
(451,775,cs),
(463,775,o),
(475,767,o),
(475,752,cs)
);
}
);
width = 500;
}
);
},
{
color = (153,255,154,255);
glyphname = K.part3;
layers = (
{
anchors = (
{
name = _bottom;
pos = (249,751);
},
{
name = bottom;
pos = (249,350);
}
);
layerId = "528058B1-8975-4609-A45E-1B73D3A96491";
shapes = (
{
closed = 1;
nodes = (
(475,445,o),
(475,439,o),
(470,434,cs),
(367,331,ls),
(362,326,o),
(356,326,o),
(350,326,cs),
(336,326,o),
(327,338,o),
(327,351,cs),
(327,357,o),
(328,362,o),
(332,366,cs),
(435,469,ls),
(439,473,o),
(444,474,o),
(450,474,cs),
(463,474,o),
(475,465,o),
(475,451,cs)
);
},
{
closed = 1;
nodes = (
(275,545,o),
(275,539,o),
(270,534,cs),
(67,331,ls),
(62,326,o),
(56,326,o),
(50,326,cs),
(36,326,o),
(27,338,o),
(27,351,cs),
(27,357,o),
(28,362,o),
(32,366,cs),
(212,551,l),
(32,734,ls),
(27,739,o),
(27,745,o),
(27,751,cs),
(27,764,o),
(37,774,o),
(50,774,cs),
(56,774,o),
(62,774,o),
(67,769,cs),
(270,566,ls),
(274,562,o),
(275,557,o),
(275,551,cs)
);
},
{
closed = 1;
nodes = (
(475,737,o),
(465,727,o),
(451,727,cs),
(436,727,o),
(427,739,o),
(427,751,cs),
(427,765,o),
(437,775,o),
(451,775,cs),
(463,775,o),
(475,766,o),
(475,751,cs)
);
}
);
width = 500;
}
);
},
{
color = (153,255,154,255);
glyphname = L.part3;
layers = (
{
anchors = (
{
name = _bottom;
pos = (249,751);
},
{
name = bottom;
pos = (249,350);
}
);
guides = (
{
pos = (0,350);
}
);
layerId = "528058B1-8975-4609-A45E-1B73D3A96491";
shapes = (
{
closed = 1;
nodes = (
(475,336,o),
(465,326,o),
(450,326,cs),
(444,326,o),
(439,327,o),
(435,331,cs),
(240,526,l),
(45,526,ls),
(34,526,o),
(27,542,o),
(27,551,cs),
(27,561,o),
(33,574,o),
(45,574,cs),
(262,574,l),
(470,366,ls),
(474,362,o),
(475,357,o),
(475,351,cs)
);
},
{
closed = 1;
nodes = (
(475,737,o),
(465,727,o),
(451,727,cs),
(436,727,o),
(427,739,o),
(427,751,cs),
(427,765,o),
(437,775,o),
(451,775,cs),
(463,775,o),
(475,766,o),
(475,751,cs)
);
},
{
closed = 1;
nodes = (
(275,740,o),
(270,726,o),
(257,726,cs),
(45,726,ls),
(32,726,o),
(27,740,o),
(27,751,cs),
(27,761,o),
(33,774,o),
(45,774,cs),
(257,774,ls),
(269,774,o),
(275,761,o),
(275,751,cs)
);
}
);
width = 500;
}
);
},
{
color = (153,255,154,255);
glyphname = M.part3;
layers = (
{
anchors = (
{
name = _bottom;
pos = (249,751);
},
{
name = bottom;
pos = (249,350);
}
);
guides = (
{
pos = (0,350);
}
);
layerId = "528058B1-8975-4609-A45E-1B73D3A96491";
shapes = (
{
closed = 1;
nodes = (
(475,337,o),
(465,327,o),
(450,327,cs),
(444,327,o),
(439,328,o),
(435,332,cs),
(250,512,l),
(67,332,ls),
(62,327,o),
(56,327,o),
(50,327,cs),
(36,327,o),
(27,339,o),
(27,352,cs),
(27,358,o),
(28,363,o),
(32,367,cs),
(235,570,ls),
(239,574,o),
(244,575,o),
(250,575,cs),
(256,575,o),
(262,575,o),
(267,570,cs),
(470,367,ls),
(474,363,o),
(475,358,o),
(475,352,cs)
);
},
{
closed = 1;
nodes = (
(275,746,o),
(275,740,o),
(270,735,cs),
(67,532,ls),
(62,527,o),
(56,527,o),
(50,527,cs),
(36,527,o),
(27,539,o),
(27,552,cs),
(27,558,o),
(28,563,o),
(32,567,cs),
(235,770,ls),
(239,774,o),
(244,775,o),
(250,775,cs),
(263,775,o),
(275,766,o),
(275,752,cs)
);
},
{
closed = 1;
nodes = (
(475,737,o),
(465,727,o),
(450,727,cs),
(436,727,o),
(427,739,o),
(427,751,cs),
(427,765,o),
(437,775,o),
(450,775,cs),
(463,775,o),
(475,766,o),
(475,751,cs)
);
}
);
width = 500;
}
);
},
{
color = (153,255,154,255);
glyphname = N.part3;
layers = (
{
anchors = (
{
name = _bottom;
pos = (249,751);
},
{
name = bottom;
pos = (249,350);
}
);
guides = (
{
pos = (0,350);
}
);
layerId = "528058B1-8975-4609-A45E-1B73D3A96491";
shapes = (
{
closed = 1;
nodes = (
(475,336,o),
(465,326,o),
(450,326,cs),
(444,326,o),
(439,327,o),
(435,331,cs),
(32,734,ls),
(27,739,o),
(27,745,o),
(27,751,cs),
(27,764,o),
(37,774,o),
(50,774,cs),
(56,774,o),
(62,774,o),
(67,769,cs),
(470,366,ls),
(474,362,o),
(475,357,o),
(475,351,cs)
);
},
{
closed = 1;
nodes = (
(175,336,o),
(165,326,o),
(150,326,cs),
(144,326,o),
(139,327,o),
(135,331,cs),
(32,434,ls),
(27,439,o),
(27,445,o),
(27,451,cs),
(27,464,o),
(37,474,o),
(50,474,cs),
(56,474,o),
(62,474,o),
(67,469,cs),
(170,366,ls),
(174,362,o),
(175,357,o),
(175,351,cs)
);
},
{
closed = 1;
nodes = (
(475,737,o),
(465,727,o),
(451,727,cs),
(436,727,o),
(427,739,o),
(427,751,cs),
(427,765,o),
(437,775,o),
(451,775,cs),
(463,775,o),
(475,766,o),
(475,751,cs)
);
}
);
width = 500;
}
);
},
{
color = (153,255,154,255);
glyphname = O.part3;
layers = (
{
anchors = (
{
name = _bottom;
pos = (249,741);
},
{
name = bottom;
pos = (249,350);
}
);
layerId = "528058B1-8975-4609-A45E-1B73D3A96491";
shapes = (
{
closed = 1;
nodes = (
(475,541,o),
(475,535,o),
(470,530,cs),
(267,327,ls),
(262,322,o),
(256,319,o),
(250,319,cs),
(244,319,o),
(239,323,o),
(235,327,cs),
(132,430,ls),
(127,435,o),
(127,441,o),
(127,447,cs),
(127,460,o),
(137,470,o),
(150,470,cs),
(156,470,o),
(162,470,o),
(167,465,cs),
(252,384,l),
(412,547,l),
(252,707,l),
(167,627,ls),
(162,622,o),
(156,622,o),
(150,622,cs),
(136,622,o),
(127,634,o),
(127,647,cs),
(127,653,o),
(128,658,o),
(132,662,cs),
(235,765,ls),
(239,769,o),
(244,773,o),
(250,773,cs),
(256,773,o),
(262,770,o),
(267,765,cs),
(470,562,ls),
(474,558,o),
(475,553,o),
(475,547,cs)
);
},
{
closed = 1;
nodes = (
(75,532,o),
(65,522,o),
(51,522,cs),
(36,522,o),
(27,534,o),
(27,546,cs),
(27,560,o),
(37,570,o),
(50,570,cs),
(63,570,o),
(75,561,o),
(75,545,cs)
);
}
);
width = 500;
}
);
},
{
color = (153,255,154,255);
glyphname = P.part3;
layers = (
{
anchors = (
{
name = _bottom;
pos = (249,751);
},
{
name = bottom;
pos = (249,350);
}
);
guides = (
{
pos = (0,350);
}
);
layerId = "528058B1-8975-4609-A45E-1B73D3A96491";
shapes = (
{
closed = 1;
nodes = (
(475,337,o),
(465,327,o),
(450,327,cs),
(436,327,o),
(427,339,o),
(427,352,cs),
(427,364,o),
(438,374,o),
(450,374,cs),
(463,374,o),
(475,366,o),
(475,352,cs)
);
},
{
closed = 1;
nodes = (
(250,512,l),
(67,332,ls),
(62,327,o),
(56,327,o),
(50,327,cs),
(36,327,o),
(27,339,o),
(27,352,cs),
(27,358,o),
(28,363,o),
(32,367,cs),
(212,552,l),
(32,735,ls),
(27,740,o),
(27,746,o),
(27,752,cs),
(27,765,o),
(37,775,o),
(50,775,cs),
(56,775,o),
(62,775,o),
(67,770,cs),
(370,467,ls),
(374,463,o),
(375,458,o),
(375,452,cs),
(375,437,o),
(365,427,o),
(350,427,cs),
(344,427,o),
(339,428,o),
(335,432,cs)
);
}
);
width = 500;
}
);
},
{
color = (153,255,154,255);
glyphname = Q.part3;
layers = (
{
anchors = (
{
name = _bottom;
pos = (249,751);
},
{
name = bottom;
pos = (249,350);
}
);
layerId = "528058B1-8975-4609-A45E-1B73D3A96491";
shapes = (
{
closed = 1;
nodes = (
(475,546,o),
(475,540,o),
(470,535,cs),
(268,333,ls),
(263,328,o),
(257,328,o),
(250,328,cs),
(244,328,o),
(239,329,o),
(235,333,cs),
(33,535,ls),
(28,540,o),
(28,546,o),
(28,553,cs),
(28,565,o),
(38,575,o),
(50,575,cs),
(57,575,o),
(63,575,o),
(68,570,cs),
(253,390,l),
(413,550,l),
(233,735,ls),
(228,740,o),
(228,746,o),
(228,753,cs),
(228,765,o),
(238,775,o),
(250,775,cs),
(257,775,o),
(263,775,o),
(268,770,cs),
(470,568,ls),
(474,564,o),
(475,559,o),
(475,553,cs)
);
},
{
closed = 1;
nodes = (
(75,738,o),
(65,728,o),
(51,728,cs),
(36,728,o),
(28,740,o),
(28,752,cs),
(28,765,o),
(38,775,o),
(51,775,cs),
(63,775,o),
(75,767,o),
(75,752,cs)
);
}
);
width = 500;
}
);
},
{
color = (153,255,154,255);
glyphname = R.part3;
layers = (
{
anchors = (
{
name = _bottom;
pos = (249,751);
},
{
name = bottom;
pos = (249,350);
}
);
layerId = "528058B1-8975-4609-A45E-1B73D3A96491";
shapes = (
{
closed = 1;
nodes = (
(475,343,o),
(470,328,o),
(458,328,cs),
(245,328,ls),
(233,328,o),
(228,343,o),
(228,353,cs),
(228,362,o),
(234,375,o),
(245,375,cs),
(458,375,ls),
(469,375,o),
(475,362,o),
(475,353,cs)
);
},
{
closed = 1;
nodes = (
(75,338,o),
(65,328,o),
(51,328,cs),
(36,328,o),
(28,340,o),
(28,352,cs),
(28,365,o),
(38,375,o),
(51,375,cs),
(63,375,o),
(75,367,o),
(75,352,cs)
);
},
{
closed = 1;
nodes = (
(275,543,o),
(270,528,o),
(258,528,cs),
(45,528,ls),
(33,528,o),
(28,543,o),
(28,553,cs),
(28,561,o),
(35,578,o),
(45,578,cs),
(188,578,l),
(33,735,ls),
(28,740,o),
(28,746,o),
(28,753,cs),
(28,765,o),
(38,775,o),
(50,775,cs),
(57,775,o),
(63,775,o),
(68,770,cs),
(270,568,ls),
(274,564,o),
(275,559,o),
(275,553,cs)
);
},
{
closed = 1;
nodes = (
(475,738,o),
(465,728,o),
(451,728,cs),
(436,728,o),
(428,740,o),
(428,752,cs),
(428,765,o),
(438,775,o),
(451,775,cs),
(463,775,o),
(475,767,o),
(475,752,cs)
);
}
);
width = 500;
}
);
},
{
color = (153,255,154,255);
glyphname = S.part3;
layers = (
{
anchors = (
{
name = _bottom;
pos = (249,751);
},
{
name = bottom;
pos = (249,350);
}
);
layerId = "528058B1-8975-4609-A45E-1B73D3A96491";
shapes = (
{
closed = 1;
nodes = (
(475,546,o),
(475,539,o),
(470,534,cs),
(268,332,ls),
(263,327,o),
(257,327,o),
(250,327,cs),
(236,327,o),
(228,339,o),
(228,352,cs),
(228,358,o),
(229,363,o),
(233,367,cs),
(388,527,l),
(45,527,ls),
(34,527,o),
(28,543,o),
(28,552,cs),
(28,558,o),
(29,563,o),
(33,567,cs),
(235,770,ls),
(239,774,o),
(244,775,o),
(250,775,cs),
(263,775,o),
(275,766,o),
(275,752,cs),
(275,746,o),
(275,740,o),
(270,735,cs),
(115,577,l),
(458,577,ls),
(468,577,o),
(475,560,o),
(475,552,cs)
);
},
{
closed = 1;
nodes = (
(75,337,o),
(65,327,o),
(51,327,cs),
(36,327,o),
(28,339,o),
(28,351,cs),
(28,364,o),
(38,374,o),
(51,374,cs),
(63,374,o),
(75,366,o),
(75,351,cs)
);
}
);
width = 500;
}
);
},
{
color = (153,255,154,255);
glyphname = T.part3;
layers = (
{
anchors = (
{
name = _bottom;
pos = (249,751);
},
{
name = bottom;
pos = (249,350);
}
);
guides = (
{
pos = (0,350);
}
);
layerId = "528058B1-8975-4609-A45E-1B73D3A96491";
shapes = (
{
closed = 1;
nodes = (
(475,337,o),
(465,327,o),
(451,327,cs),
(436,327,o),
(428,339,o),
(428,351,cs),
(428,364,o),
(438,374,o),
(451,374,cs),
(463,374,o),
(475,366,o),
(475,351,cs)
);
},
{
closed = 1;
nodes = (
(275,342,o),
(270,327,o),
(258,327,cs),
(45,327,ls),
(33,327,o),
(28,342,o),
(28,351,cs),
(28,361,o),
(34,374,o),
(45,374,cs),
(258,374,ls),
(269,374,o),
(275,361,o),
(275,351,cs)
);
},
{
closed = 1;
nodes = (
(375,437,o),
(365,427,o),
(350,427,cs),
(344,427,o),
(339,428,o),
(335,432,cs),
(33,735,ls),
(28,740,o),
(28,746,o),
(28,752,cs),
(28,764,o),
(38,775,o),
(50,775,cs),
(57,775,o),
(63,775,o),
(68,770,cs),
(370,467,ls),
(374,463,o),
(375,458,o),
(375,452,cs)
);
}
);
width = 500;
}
);
},
{
color = (153,255,154,255);
glyphname = U.part3;
layers = (
{
anchors = (
{
name = _bottom;
pos = (249,751);
},
{
name = bottom;
pos = (249,350);
}
);
guides = (
{
pos = (0,350);
}
);
layerId = "528058B1-8975-4609-A45E-1B73D3A96491";
shapes = (
{
closed = 1;
nodes = (
(275,333,o),
(265,323,o),
(251,323,cs),
(236,323,o),
(227,335,o),
(227,347,cs),
(227,360,o),
(238,370,o),
(251,370,cs),
(263,370,o),
(275,362,o),
(275,347,cs)
);
},
{
closed = 1;
nodes = (
(475,542,o),
(475,536,o),
(470,531,cs),
(367,428,ls),
(362,423,o),
(356,423,o),
(350,423,cs),
(336,423,o),
(327,435,o),
(327,448,cs),
(327,454,o),
(328,459,o),
(332,463,cs),
(412,548,l),
(252,708,l),
(67,528,ls),
(62,523,o),
(56,523,o),
(50,523,cs),
(36,523,o),
(27,535,o),
(27,548,cs),
(27,554,o),
(28,559,o),
(32,563,cs),
(235,766,ls),
(239,770,o),
(244,775,o),
(250,775,cs),
(256,775,o),
(262,771,o),
(267,766,cs),
(470,563,ls),
(474,559,o),
(475,554,o),
(475,548,cs)
);
}
);
width = 500;
}
);
},
{
color = (153,255,154,255);
glyphname = V.part3;
layers = (
{
anchors = (
{
name = _bottom;
pos = (249,751);
},
{
name = bottom;
pos = (249,350);
}
);
layerId = "528058B1-8975-4609-A45E-1B73D3A96491";
shapes = (
{
closed = 1;
nodes = (
(306,375,l),
(200,375,l),
(200,725,l),
(306,725,l)
);
},
{
closed = 1;
nodes = (
(229,488,l),
(229,449,l),
(277,449,l),
(277,488,l)
);
},
{
closed = 1;
nodes = (
(229,548,l),
(229,509,l),
(277,509,l),
(277,548,l),
(249,548,l),
(249,528,l),
(258,528,l),
(258,538,l),
(268,538,l),
(268,518,l),
(239,518,l),
(239,548,l)
);
},
{
closed = 1;
nodes = (
(229,410,l),
(229,400,l),
(277,400,l),
(277,410,l),
(245,410,l),
(277,429,l),
(277,439,l),
(229,439,l),
(229,430,l),
(262,430,l)
);
},
{
closed = 1;
nodes = (
(229,656,l),
(229,622,l),
(277,622,l),
(277,631,l),
(258,631,l),
(258,656,l)
);
},
{
closed = 1;
nodes = (
(229,676,l),
(229,666,l),
(277,666,l),
(277,676,l),
(256,676,l),
(256,691,l),
(277,691,l),
(277,700,l),
(229,700,l),
(229,691,l),
(246,691,l),
(246,676,l)
);
},
{
closed = 1;
nodes = (
(229,587,l),
(229,578,l),
(258,578,l),
(258,602,l),
(277,602,l),
(277,612,l),
(229,612,l),
(229,602,l),
(249,602,l),
(249,587,l)
);
},
{
closed = 1;
nodes = (
(229,567,l),
(229,558,l),
(277,558,l),
(277,592,l),
(268,592,l),
(268,567,l)
);
},
{
closed = 1;
nodes = (
(268,459,l),
(239,459,l),
(239,479,l),
(268,479,l)
);
},
{
closed = 1;
nodes = (
(249,631,l),
(239,631,l),
(239,646,l),
(249,646,l)
);
}
);
width = 500;
}
);
},
{
color = (153,255,154,255);
glyphname = W.part3;
layers = (
{
anchors = (
{
name = _bottom;
pos = (249,751);
},
{
name = bottom;
pos = (249,350);
}
);
guides = (
{
pos = (0,350);
}
);
layerId = "528058B1-8975-4609-A45E-1B73D3A96491";
shapes = (
{
closed = 1;
nodes = (
(475,337,o),
(465,327,o),
(450,327,cs),
(436,327,o),
(427,339,o),
(427,352,cs),
(427,364,o),
(438,374,o),
(450,374,cs),
(463,374,o),
(475,366,o),
(475,352,cs)
);
},
{
closed = 1;
nodes = (
(175,337,o),
(165,327,o),
(150,327,cs),
(144,327,o),
(139,328,o),
(135,332,cs),
(32,435,ls),
(27,440,o),
(27,446,o),
(27,452,cs),
(27,465,o),
(37,475,o),
(50,475,cs),
(56,475,o),
(62,475,o),
(67,470,cs),
(170,367,ls),
(174,363,o),
(175,358,o),
(175,352,cs)
);
},
{
closed = 1;
nodes = (
(475,746,o),
(475,740,o),
(470,735,cs),
(267,532,ls),
(262,527,o),
(256,527,o),
(250,527,cs),
(244,527,o),
(239,528,o),
(235,532,cs),
(32,735,ls),
(27,740,o),
(27,746,o),
(27,752,cs),
(27,765,o),
(37,775,o),
(50,775,cs),
(56,775,o),
(62,775,o),
(67,770,cs),
(250,590,l),
(435,770,ls),
(439,774,o),
(444,775,o),
(450,775,cs),
(463,775,o),
(475,766,o),
(475,752,cs)
);
}
);
width = 500;
}
);
},
{
color = (153,255,154,255);
glyphname = X.part3;
layers = (
{
anchors = (
{
name = _bottom;
pos = (249,751);
},
{
name = bottom;
pos = (249,350);
}
);
layerId = "528058B1-8975-4609-A45E-1B73D3A96491";
shapes = (
{
closed = 1;
nodes = (
(475,337,o),
(465,327,o),
(450,327,cs),
(444,327,o),
(439,328,o),
(435,332,cs),
(333,434,ls),
(328,439,o),
(328,445,o),
(328,452,cs),
(328,464,o),
(338,474,o),
(350,474,cs),
(357,474,o),
(363,474,o),
(368,469,cs),
(470,367,ls),
(474,363,o),
(475,358,o),
(475,352,cs)
);
},
{
closed = 1;
nodes = (
(75,337,o),
(65,327,o),
(51,327,cs),
(36,327,o),
(28,339,o),
(28,351,cs),
(28,364,o),
(38,374,o),
(51,374,cs),
(63,374,o),
(75,366,o),
(75,351,cs)
);
},
{
closed = 1;
nodes = (
(375,646,o),
(375,640,o),
(370,635,cs),
(268,532,ls),
(263,527,o),
(257,527,o),
(250,527,cs),
(244,527,o),
(239,528,o),
(235,532,cs),
(33,735,ls),
(28,740,o),
(28,746,o),
(28,752,cs),
(28,764,o),
(38,775,o),
(50,775,cs),
(57,775,o),
(63,775,o),
(68,770,cs),
(250,590,l),
(335,670,ls),
(339,674,o),
(344,675,o),
(350,675,cs),
(363,675,o),
(375,666,o),
(375,652,cs)
);
}
);
width = 500;
}
);
},
{
color = (153,255,154,255);
glyphname = Y.part3;
layers = (
{
anchors = (
{
name = _bottom;
pos = (249,751);
},
{
name = bottom;
pos = (249,350);
}
);
guides = (
{
pos = (0,350);
}
);
layerId = "528058B1-8975-4609-A45E-1B73D3A96491";
shapes = (
{
closed = 1;
nodes = (
(475,337,o),
(465,327,o),
(450,327,cs),
(444,327,o),
(439,328,o),
(435,332,cs),
(332,435,ls),
(327,440,o),
(327,446,o),
(327,452,cs),
(327,465,o),
(337,475,o),
(350,475,cs),
(356,475,o),
(362,475,o),
(367,470,cs),
(470,367,ls),
(474,363,o),
(475,358,o),
(475,352,cs)
);
},
{
closed = 1;
nodes = (
(75,337,o),
(65,327,o),
(50,327,cs),
(36,327,o),
(27,339,o),
(27,352,cs),
(27,364,o),
(38,374,o),
(50,374,cs),
(63,374,o),
(75,366,o),
(75,352,cs)
);
},
{
closed = 1;
nodes = (
(475,746,o),
(475,740,o),
(470,735,cs),
(167,432,ls),
(162,427,o),
(156,427,o),
(150,427,cs),
(136,427,o),
(127,439,o),
(127,452,cs),
(127,458,o),
(128,463,o),
(132,467,cs),
(435,770,ls),
(439,774,o),
(444,775,o),
(450,775,cs),
(463,775,o),
(475,766,o),
(475,752,cs)
);
},
{
closed = 1;
nodes = (
(175,637,o),
(165,627,o),
(150,627,cs),
(144,627,o),
(139,628,o),
(135,632,cs),
(32,735,ls),
(27,740,o),
(27,746,o),
(27,752,cs),
(27,765,o),
(37,775,o),
(50,775,cs),
(56,775,o),
(62,775,o),
(67,770,cs),
(170,667,ls),
(174,663,o),
(175,658,o),
(175,652,cs)
);
}
);
width = 500;
}
);
},
{
color = (153,255,154,255);
glyphname = Z.part3;
layers = (
{
anchors = (
{
name = _bottom;
pos = (249,751);
},
{
name = bottom;
pos = (249,350);
}
);
layerId = "528058B1-8975-4609-A45E-1B73D3A96491";
shapes = (
{
closed = 1;
nodes = (
(475,337,o),
(465,327,o),
(451,327,cs),
(436,327,o),
(427,339,o),
(427,351,cs),
(427,364,o),
(438,375,o),
(451,375,cs),
(463,375,o),
(475,366,o),
(475,351,cs)
);
},
{
closed = 1;
nodes = (
(375,341,o),
(370,327,o),
(357,327,cs),
(45,327,ls),
(32,327,o),
(27,341,o),
(27,352,cs),
(27,358,o),
(28,363,o),
(32,367,cs),
(335,670,ls),
(339,674,o),
(344,675,o),
(350,675,cs),
(363,675,o),
(375,666,o),
(375,652,cs),
(375,646,o),
(375,640,o),
(370,635,cs),
(113,375,l),
(357,375,ls),
(369,375,o),
(375,361,o),
(375,351,cs)
);
},
{
closed = 1;
nodes = (
(475,737,o),
(465,727,o),
(451,727,cs),
(436,727,o),
(427,739,o),
(427,751,cs),
(427,765,o),
(437,775,o),
(451,775,cs),
(463,775,o),
(475,766,o),
(475,751,cs)
);
},
{
closed = 1;
nodes = (
(275,741,o),
(270,727,o),
(257,727,cs),
(45,727,ls),
(32,727,o),
(27,741,o),
(27,752,cs),
(27,762,o),
(33,775,o),
(45,775,cs),
(257,775,ls),
(269,775,o),
(275,762,o),
(275,752,cs)
);
}
);
width = 500;
}
);
},
{
color = (153,255,154,255);
glyphname = end.part3;
layers = (
{
anchors = (
{
name = _bottom;
pos = (249,751);
}
);
layerId = "528058B1-8975-4609-A45E-1B73D3A96491";
shapes = (
{
closed = 1;
nodes = (
(425,764,o),
(435,775,o),
(449,775,cs),
(464,775,o),
(473,763,o),
(473,751,cs),
(473,738,o),
(463,728,o),
(449,728,cs),
(437,728,o),
(425,737,o),
(425,751,cs)
);
},
{
closed = 1;
nodes = (
(25,356,o),
(26,363,o),
(32,369,cs),
(333,670,ls),
(338,675,o),
(344,675,o),
(350,675,cs),
(364,675,o),
(373,663,o),
(373,650,cs),
(373,644,o),
(372,639,o),
(368,635,cs),
(67,334,ls),
(62,329,o),
(56,327,o),
(50,327,cs),
(37,327,o),
(25,336,o),
(25,350,cs)
);
}
);
width = 500;
}
);
},
{
color = (255,153,254,255);
glyphname = A.part4;
layers = (
{
anchors = (
{
name = _bottom;
pos = (249,750);
},
{
name = bottom;
pos = (249,350);
}
);
layerId = "528058B1-8975-4609-A45E-1B73D3A96491";
shapes = (
{
closed = 1;
nodes = (
(36,726,o),
(26,736,o),
(26,751,cs),
(26,765,o),
(38,774,o),
(50,774,cs),
(63,774,o),
(74,763,o),
(74,751,cs),
(74,738,o),
(65,726,o),
(50,726,cs)
);
},
{
closed = 1;
nodes = (
(445,326,o),
(439,326,o),
(434,331,cs),
(131,634,ls),
(126,639,o),
(126,645,o),
(126,651,cs),
(126,665,o),
(138,674,o),
(151,674,cs),
(157,674,o),
(162,673,o),
(166,669,cs),
(469,366,ls),
(473,362,o),
(474,357,o),
(474,351,cs),
(474,338,o),
(465,326,o),
(451,326,cs)
);
},
{
closed = 1;
nodes = (
(440,526,o),
(426,531,o),
(426,544,cs),
(426,756,ls),
(426,769,o),
(440,774,o),
(451,774,cs),
(461,774,o),
(474,768,o),
(474,756,cs),
(474,544,ls),
(474,532,o),
(461,526,o),
(451,526,cs)
);
}
);
width = 500;
}
);
},
{
color = (255,153,254,255);
glyphname = B.part4;
layers = (
{
anchors = (
{
name = _bottom;
pos = (249,751);
},
{
name = bottom;
pos = (249,350);
}
);
layerId = "528058B1-8975-4609-A45E-1B73D3A96491";
shapes = (
{
closed = 1;
nodes = (
(35,326,o),
(26,336,o),
(26,350,cs),
(26,365,o),
(38,373,o),
(49,373,cs),
(63,373,o),
(74,363,o),
(74,350,cs),
(74,338,o),
(65,326,o),
(50,326,cs)
);
},
{
closed = 1;
nodes = (
(40,526,o),
(26,531,o),
(26,543,cs),
(26,756,ls),
(26,768,o),
(40,773,o),
(50,773,cs),
(59,773,o),
(74,767,o),
(74,756,cs),
(74,543,ls),
(74,532,o),
(59,526,o),
(50,526,cs)
);
},
{
closed = 1;
nodes = (
(241,426,o),
(226,431,o),
(226,443,cs),
(226,756,ls),
(226,768,o),
(241,773,o),
(251,773,cs),
(261,773,o),
(274,767,o),
(274,756,cs),
(274,443,ls),
(274,432,o),
(261,426,o),
(251,426,cs)
);
},
{
closed = 1;
nodes = (
(441,326,o),
(426,331,o),
(426,343,cs),
(426,656,ls),
(426,668,o),
(441,673,o),
(451,673,cs),
(461,673,o),
(474,667,o),
(474,656,cs),
(474,343,ls),
(474,332,o),
(461,326,o),
(451,326,cs)
);
}
);
width = 500;
}
);
},
{
color = (255,153,254,255);
glyphname = C.part4;
layers = (
{
anchors = (
{
name = _bottom;
pos = (249,751);
},
{
name = bottom;
pos = (249,350);
}
);
layerId = "528058B1-8975-4609-A45E-1B73D3A96491";
shapes = (
{
closed = 1;
nodes = (
(40,326,o),
(26,331,o),
(26,343,cs),
(26,661,l),
(133,768,ls),
(138,773,o),
(144,773,o),
(151,773,cs),
(163,773,o),
(173,763,o),
(173,751,cs),
(173,744,o),
(173,738,o),
(168,733,cs),
(74,636,l),
(74,343,ls),
(74,332,o),
(59,326,o),
(50,326,cs)
);
},
{
closed = 1;
nodes = (
(436,326,o),
(426,336,o),
(426,350,cs),
(426,365,o),
(438,373,o),
(450,373,cs),
(463,373,o),
(474,363,o),
(474,350,cs),
(474,338,o),
(465,326,o),
(450,326,cs)
);
},
{
closed = 1;
nodes = (
(441,526,o),
(426,531,o),
(426,543,cs),
(426,756,ls),
(426,768,o),
(441,773,o),
(451,773,cs),
(461,773,o),
(474,767,o),
(474,756,cs),
(474,543,ls),
(474,532,o),
(461,526,o),
(451,526,cs)
);
}
);
width = 500;
}
);
},
{
color = (255,153,254,255);
glyphname = D.part4;
layers = (
{
anchors = (
{
name = _bottom;
pos = (249,751);
},
{
name = bottom;
pos = (249,350);
}
);
guides = (
{
pos = (0,350);
}
);
layerId = "528058B1-8975-4609-A45E-1B73D3A96491";
shapes = (
{
closed = 1;
nodes = (
(41,326,o),
(26,331,o),
(26,343,cs),
(26,611,l),
(183,768,ls),
(188,773,o),
(194,773,o),
(201,773,cs),
(213,773,o),
(223,763,o),
(223,751,cs),
(223,744,o),
(223,738,o),
(218,733,cs),
(74,588,l),
(74,343,ls),
(74,333,o),
(59,326,o),
(50,326,cs)
);
},
{
closed = 1;
nodes = (
(236,326,o),
(226,336,o),
(226,351,cs),
(226,357,o),
(227,362,o),
(231,366,cs),
(434,568,ls),
(439,573,o),
(445,573,o),
(451,573,cs),
(463,573,o),
(474,563,o),
(474,551,cs),
(474,544,o),
(474,538,o),
(469,533,cs),
(266,331,ls),
(262,327,o),
(257,326,o),
(251,326,cs)
);
},
{
closed = 1;
nodes = (
(436,726,o),
(426,736,o),
(426,750,cs),
(426,765,o),
(438,773,o),
(450,773,cs),
(463,773,o),
(474,763,o),
(474,750,cs),
(474,738,o),
(465,726,o),
(450,726,cs)
);
}
);
width = 500;
}
);
},
{
color = (255,153,254,255);
glyphname = E.part4;
layers = (
{
anchors = (
{
name = _bottom;
pos = (249,751);
},
{
name = bottom;
pos = (249,350);
}
);
guides = (
{
pos = (0,350);
}
);
layerId = "528058B1-8975-4609-A45E-1B73D3A96491";
shapes = (
{
closed = 1;
nodes = (
(36,326,o),
(26,336,o),
(26,350,cs),
(26,365,o),
(38,374,o),
(50,374,cs),
(63,374,o),
(74,363,o),
(74,350,cs),
(74,338,o),
(65,326,o),
(50,326,cs)
);
},
{
closed = 1;
nodes = (
(39,526,o),
(26,531,o),
(26,544,cs),
(26,756,ls),
(26,769,o),
(39,774,o),
(50,774,cs),
(61,774,o),
(74,767,o),
(74,756,cs),
(74,544,ls),
(74,533,o),
(61,526,o),
(50,526,cs)
);
},
{
closed = 1;
nodes = (
(240,426,o),
(226,431,o),
(226,444,cs),
(226,656,ls),
(226,669,o),
(240,674,o),
(251,674,cs),
(261,674,o),
(274,668,o),
(274,656,cs),
(274,444,ls),
(274,432,o),
(261,426,o),
(251,426,cs)
);
},
{
closed = 1;
nodes = (
(436,326,o),
(426,336,o),
(426,351,cs),
(426,365,o),
(438,374,o),
(451,374,cs),
(464,374,o),
(474,364,o),
(474,351,cs),
(474,338,o),
(465,326,o),
(451,326,cs)
);
},
{
closed = 1;
nodes = (
(440,526,o),
(426,531,o),
(426,544,cs),
(426,756,ls),
(426,769,o),
(440,774,o),
(451,774,cs),
(461,774,o),
(474,768,o),
(474,756,cs),
(474,544,ls),
(474,532,o),
(461,526,o),
(451,526,cs)
);
}
);
width = 500;
}
);
},
{
color = (255,153,254,255);
glyphname = F.part4;
layers = (
{
anchors = (
{
name = _bottom;
pos = (249,751);
},
{
name = bottom;
pos = (249,350);
}
);
guides = (
{
pos = (0,350);
}
);
layerId = "528058B1-8975-4609-A45E-1B73D3A96491";
shapes = (
{
closed = 1;
nodes = (
(36,326,o),
(26,336,o),
(26,351,cs),
(26,365,o),
(38,374,o),
(50,374,cs),
(63,374,o),
(73,363,o),
(73,351,cs),
(73,338,o),
(65,326,o),
(50,326,cs)
);
},
{
closed = 1;
nodes = (
(40,526,o),
(26,531,o),
(26,544,cs),
(26,756,ls),
(26,769,o),
(40,774,o),
(50,774,cs),
(61,774,o),
(73,767,o),
(73,756,cs),
(73,544,ls),
(73,533,o),
(61,526,o),
(50,526,cs)
);
},
{
closed = 1;
nodes = (
(240,526,o),
(226,531,o),
(226,544,cs),
(226,756,ls),
(226,769,o),
(240,774,o),
(251,774,cs),
(260,774,o),
(276,766,o),
(276,756,cs),
(276,614,l),
(434,769,ls),
(439,774,o),
(445,774,o),
(451,774,cs),
(464,774,o),
(474,764,o),
(474,751,cs),
(474,745,o),
(474,739,o),
(469,734,cs),
(266,531,ls),
(262,527,o),
(257,526,o),
(251,526,cs)
);
}
);
width = 500;
}
);
},
{
color = (255,153,254,255);
glyphname = G.part4;
layers = (
{
anchors = (
{
name = _bottom;
pos = (249,751);
},
{
name = bottom;
pos = (249,350);
}
);
guides = (
{
pos = (0,350);
}
);
layerId = "528058B1-8975-4609-A45E-1B73D3A96491";
shapes = (
{
closed = 1;
nodes = (
(40,326,o),
(26,331,o),
(26,344,cs),
(26,556,ls),
(26,569,o),
(40,574,o),
(50,574,cs),
(61,574,o),
(74,567,o),
(74,556,cs),
(74,344,ls),
(74,333,o),
(61,326,o),
(50,326,cs)
);
},
{
closed = 1;
nodes = (
(36,726,o),
(26,736,o),
(26,750,cs),
(26,765,o),
(38,774,o),
(50,774,cs),
(63,774,o),
(74,763,o),
(74,750,cs),
(74,738,o),
(65,726,o),
(50,726,cs)
);
},
{
closed = 1;
nodes = (
(240,526,o),
(226,531,o),
(226,544,cs),
(226,756,ls),
(226,769,o),
(240,774,o),
(251,774,cs),
(261,774,o),
(274,768,o),
(274,756,cs),
(274,544,ls),
(274,532,o),
(261,526,o),
(251,526,cs)
);
},
{
closed = 1;
nodes = (
(437,326,o),
(427,336,o),
(427,350,cs),
(427,365,o),
(439,374,o),
(451,374,cs),
(465,374,o),
(475,364,o),
(475,350,cs),
(475,338,o),
(466,326,o),
(451,326,cs)
);
},
{
closed = 1;
nodes = (
(440,526,o),
(426,531,o),
(426,544,cs),
(426,756,ls),
(426,769,o),
(440,774,o),
(451,774,cs),
(461,774,o),
(474,768,o),
(474,756,cs),
(474,544,ls),
(474,532,o),
(461,526,o),
(451,526,cs)
);
}
);
width = 500;
}
);
},
{
color = (255,153,254,255);
glyphname = H.part4;
layers = (
{
anchors = (
{
name = _bottom;
pos = (249,751);
},
{
name = bottom;
pos = (249,350);
}
);
layerId = "528058B1-8975-4609-A45E-1B73D3A96491";
shapes = (
{
closed = 1;
nodes = (
(36,526,o),
(26,536,o),
(26,551,cs),
(26,557,o),
(27,562,o),
(31,566,cs),
(234,769,ls),
(239,774,o),
(245,774,o),
(251,774,cs),
(260,774,o),
(275,766,o),
(275,756,cs),
(275,513,l),
(434,669,ls),
(439,674,o),
(445,674,o),
(451,674,cs),
(464,674,o),
(474,664,o),
(474,651,cs),
(474,645,o),
(474,639,o),
(469,634,cs),
(266,431,ls),
(262,427,o),
(257,426,o),
(251,426,cs),
(242,426,o),
(227,433,o),
(227,444,cs),
(227,687,l),
(66,531,ls),
(62,527,o),
(57,526,o),
(51,526,cs)
);
},
{
closed = 1;
nodes = (
(437,326,o),
(427,336,o),
(427,350,cs),
(427,365,o),
(439,374,o),
(451,374,cs),
(465,374,o),
(475,364,o),
(475,350,cs),
(475,338,o),
(466,326,o),
(451,326,cs)
);
}
);
width = 500;
}
);
},
{
color = (255,153,254,255);
glyphname = I.part4;
layers = (
{
anchors = (
{
name = _bottom;
pos = (249,751);
},
{
name = bottom;
pos = (249,350);
}
);
guides = (
{
pos = (0,350);
}
);
layerId = "528058B1-8975-4609-A45E-1B73D3A96491";
shapes = (
{
closed = 1;
nodes = (
(40,326,o),
(26,331,o),
(26,344,cs),
(26,554,ls),
(26,569,o),
(39,574,o),
(50,574,cs),
(61,574,o),
(74,569,o),
(74,554,cs),
(74,412,l),
(434,769,ls),
(439,774,o),
(445,774,o),
(451,774,cs),
(461,774,o),
(474,768,o),
(474,756,cs),
(474,544,ls),
(474,532,o),
(461,526,o),
(451,526,cs),
(442,526,o),
(426,533,o),
(426,544,cs),
(426,686,l),
(66,331,ls),
(62,327,o),
(57,326,o),
(51,326,cs)
);
},
{
closed = 1;
nodes = (
(36,726,o),
(26,736,o),
(26,751,cs),
(26,765,o),
(38,774,o),
(51,774,cs),
(63,774,o),
(74,763,o),
(74,751,cs),
(74,738,o),
(65,726,o),
(51,726,cs)
);
},
{
closed = 1;
nodes = (
(436,326,o),
(426,336,o),
(426,350,cs),
(426,365,o),
(436,374,o),
(450,374,cs),
(464,374,o),
(474,364,o),
(474,350,cs),
(474,338,o),
(465,326,o),
(451,326,cs)
);
}
);
width = 500;
}
);
},
{
color = (255,153,254,255);
glyphname = J.part4;
layers = (
{
anchors = (
{
name = _bottom;
pos = (249,751);
},
{
name = bottom;
pos = (249,350);
}
);
layerId = "528058B1-8975-4609-A45E-1B73D3A96491";
shapes = (
{
closed = 1;
nodes = (
(36,326,o),
(26,336,o),
(26,351,cs),
(26,357,o),
(27,362,o),
(31,366,cs),
(433,768,ls),
(438,773,o),
(444,773,o),
(451,773,cs),
(460,773,o),
(473,767,o),
(473,756,cs),
(473,543,ls),
(473,532,o),
(460,526,o),
(451,526,cs),
(442,526,o),
(426,532,o),
(426,543,cs),
(426,686,l),
(66,331,ls),
(62,327,o),
(57,326,o),
(51,326,cs)
);
},
{
closed = 1;
nodes = (
(437,326,o),
(427,336,o),
(427,350,cs),
(427,365,o),
(439,373,o),
(451,373,cs),
(464,373,o),
(474,363,o),
(474,350,cs),
(474,338,o),
(466,326,o),
(451,326,cs)
);
}
);
width = 500;
}
);
},
{
color = (255,153,254,255);
glyphname = K.part4;
layers = (
{
anchors = (
{
name = _bottom;
pos = (249,751);
},
{
name = bottom;
pos = (249,350);
}
);
layerId = "528058B1-8975-4609-A45E-1B73D3A96491";
shapes = (
{
closed = 1;
nodes = (
(145,326,o),
(139,326,o),
(134,331,cs),
(31,434,ls),
(26,439,o),
(26,445,o),
(26,451,cs),
(26,465,o),
(38,474,o),
(51,474,cs),
(57,474,o),
(62,473,o),
(66,469,cs),
(169,366,ls),
(173,362,o),
(174,357,o),
(174,351,cs),
(174,338,o),
(165,326,o),
(151,326,cs)
);
},
{
closed = 1;
nodes = (
(245,526,o),
(239,526,o),
(234,531,cs),
(31,734,ls),
(26,739,o),
(26,745,o),
(26,751,cs),
(26,765,o),
(38,774,o),
(51,774,cs),
(57,774,o),
(62,773,o),
(66,769,cs),
(251,589,l),
(434,769,ls),
(439,774,o),
(445,774,o),
(451,774,cs),
(464,774,o),
(474,764,o),
(474,751,cs),
(474,745,o),
(474,739,o),
(469,734,cs),
(266,531,ls),
(262,527,o),
(257,526,o),
(251,526,cs)
);
},
{
closed = 1;
nodes = (
(437,326,o),
(427,336,o),
(427,350,cs),
(427,365,o),
(439,374,o),
(451,374,cs),
(465,374,o),
(475,364,o),
(475,350,cs),
(475,338,o),
(466,326,o),
(451,326,cs)
);
}
);
width = 500;
}
);
},
{
color = (255,153,254,255);
glyphname = L.part4;
layers = (
{
anchors = (
{
name = _bottom;
pos = (249,751);
},
{
name = bottom;
pos = (249,350);
}
);
guides = (
{
pos = (0,350);
}
);
layerId = "528058B1-8975-4609-A45E-1B73D3A96491";
shapes = (
{
closed = 1;
nodes = (
(36,326,o),
(26,336,o),
(26,351,cs),
(26,357,o),
(27,362,o),
(31,366,cs),
(226,561,l),
(226,756,ls),
(226,767,o),
(242,774,o),
(251,774,cs),
(261,774,o),
(274,768,o),
(274,756,cs),
(274,539,l),
(66,331,ls),
(62,327,o),
(57,326,o),
(51,326,cs)
);
},
{
closed = 1;
nodes = (
(437,326,o),
(427,336,o),
(427,350,cs),
(427,365,o),
(439,374,o),
(451,374,cs),
(465,374,o),
(475,364,o),
(475,350,cs),
(475,338,o),
(466,326,o),
(451,326,cs)
);
},
{
closed = 1;
nodes = (
(440,526,o),
(426,531,o),
(426,544,cs),
(426,756,ls),
(426,769,o),
(440,774,o),
(451,774,cs),
(461,774,o),
(474,768,o),
(474,756,cs),
(474,544,ls),
(474,532,o),
(461,526,o),
(451,526,cs)
);
}
);
width = 500;
}
);
},
{
color = (255,153,254,255);
glyphname = M.part4;
layers = (
{
anchors = (
{
name = _bottom;
pos = (249,751);
},
{
name = bottom;
pos = (249,350);
}
);
guides = (
{
pos = (0,350);
}
);
layerId = "528058B1-8975-4609-A45E-1B73D3A96491";
shapes = (
{
closed = 1;
nodes = (
(36,326,o),
(26,336,o),
(26,351,cs),
(26,357,o),
(27,362,o),
(31,366,cs),
(211,551,l),
(31,734,ls),
(26,739,o),
(26,745,o),
(26,751,cs),
(26,765,o),
(38,774,o),
(51,774,cs),
(57,774,o),
(62,773,o),
(66,769,cs),
(269,566,ls),
(273,562,o),
(274,557,o),
(274,551,cs),
(274,545,o),
(274,539,o),
(269,534,cs),
(66,331,ls),
(62,327,o),
(57,326,o),
(51,326,cs)
);
},
{
closed = 1;
nodes = (
(445,526,o),
(439,526,o),
(434,531,cs),
(231,734,ls),
(226,739,o),
(226,745,o),
(226,751,cs),
(226,765,o),
(238,774,o),
(251,774,cs),
(257,774,o),
(262,773,o),
(266,769,cs),
(469,566,ls),
(473,562,o),
(474,557,o),
(474,551,cs),
(474,538,o),
(465,526,o),
(451,526,cs)
);
},
{
closed = 1;
nodes = (
(436,326,o),
(426,336,o),
(426,351,cs),
(426,365,o),
(438,374,o),
(450,374,cs),
(464,374,o),
(474,364,o),
(474,351,cs),
(474,338,o),
(465,326,o),
(450,326,cs)
);
}
);
width = 500;
}
);
},
{
color = (255,153,254,255);
glyphname = N.part4;
layers = (
{
anchors = (
{
name = _bottom;
pos = (249,751);
},
{
name = bottom;
pos = (249,350);
}
);
guides = (
{
pos = (0,350);
}
);
layerId = "528058B1-8975-4609-A45E-1B73D3A96491";
shapes = (
{
closed = 1;
nodes = (
(36,326,o),
(26,336,o),
(26,351,cs),
(26,357,o),
(27,362,o),
(31,366,cs),
(434,769,ls),
(439,774,o),
(445,774,o),
(451,774,cs),
(464,774,o),
(474,764,o),
(474,751,cs),
(474,745,o),
(474,739,o),
(469,734,cs),
(66,331,ls),
(62,327,o),
(57,326,o),
(51,326,cs)
);
},
{
closed = 1;
nodes = (
(36,626,o),
(26,636,o),
(26,651,cs),
(26,657,o),
(27,662,o),
(31,666,cs),
(134,769,ls),
(139,774,o),
(145,774,o),
(151,774,cs),
(164,774,o),
(174,764,o),
(174,751,cs),
(174,745,o),
(174,739,o),
(169,734,cs),
(66,631,ls),
(62,627,o),
(57,626,o),
(51,626,cs)
);
},
{
closed = 1;
nodes = (
(437,326,o),
(427,336,o),
(427,350,cs),
(427,365,o),
(439,374,o),
(451,374,cs),
(465,374,o),
(475,364,o),
(475,350,cs),
(475,338,o),
(466,326,o),
(451,326,cs)
);
}
);
width = 500;
}
);
},
{
color = (255,153,254,255);
glyphname = O.part4;
layers = (
{
anchors = (
{
name = _bottom;
pos = (249,741);
},
{
name = bottom;
pos = (249,350);
}
);
layerId = "528058B1-8975-4609-A45E-1B73D3A96491";
shapes = (
{
closed = 1;
nodes = (
(245,321,o),
(239,321,o),
(234,326,cs),
(31,529,ls),
(26,534,o),
(23,540,o),
(23,546,cs),
(23,552,o),
(27,557,o),
(31,561,cs),
(134,664,ls),
(139,669,o),
(145,669,o),
(151,669,cs),
(164,669,o),
(174,659,o),
(174,646,cs),
(174,640,o),
(174,634,o),
(169,629,cs),
(88,544,l),
(251,384,l),
(411,544,l),
(331,629,ls),
(326,634,o),
(326,640,o),
(326,646,cs),
(326,660,o),
(338,669,o),
(351,669,cs),
(357,669,o),
(362,668,o),
(366,664,cs),
(469,561,ls),
(473,557,o),
(477,552,o),
(477,546,cs),
(477,540,o),
(474,534,o),
(469,529,cs),
(266,326,ls),
(262,322,o),
(257,321,o),
(251,321,cs)
);
},
{
closed = 1;
nodes = (
(236,721,o),
(226,731,o),
(226,745,cs),
(226,760,o),
(238,769,o),
(250,769,cs),
(264,769,o),
(274,759,o),
(274,746,cs),
(274,733,o),
(265,721,o),
(249,721,cs)
);
}
);
width = 500;
}
);
},
{
color = (255,153,254,255);
glyphname = P.part4;
layers = (
{
anchors = (
{
name = _bottom;
pos = (249,751);
},
{
name = bottom;
pos = (249,350);
}
);
guides = (
{
pos = (0,350);
}
);
layerId = "528058B1-8975-4609-A45E-1B73D3A96491";
shapes = (
{
closed = 1;
nodes = (
(36,326,o),
(26,336,o),
(26,351,cs),
(26,365,o),
(38,374,o),
(51,374,cs),
(63,374,o),
(73,363,o),
(73,351,cs),
(73,338,o),
(65,326,o),
(51,326,cs)
);
},
{
closed = 1;
nodes = (
(211,551,l),
(31,734,ls),
(26,739,o),
(26,745,o),
(26,751,cs),
(26,765,o),
(38,774,o),
(51,774,cs),
(57,774,o),
(62,773,o),
(66,769,cs),
(251,589,l),
(434,769,ls),
(439,774,o),
(445,774,o),
(451,774,cs),
(464,774,o),
(474,764,o),
(474,751,cs),
(474,745,o),
(474,739,o),
(469,734,cs),
(166,431,ls),
(162,427,o),
(157,426,o),
(151,426,cs),
(136,426,o),
(126,436,o),
(126,451,cs),
(126,457,o),
(127,462,o),
(131,466,cs)
);
}
);
width = 500;
}
);
},
{
color = (255,153,254,255);
glyphname = Q.part4;
layers = (
{
anchors = (
{
name = _bottom;
pos = (249,751);
},
{
name = bottom;
pos = (249,350);
}
);
layerId = "528058B1-8975-4609-A45E-1B73D3A96491";
shapes = (
{
closed = 1;
nodes = (
(245,327,o),
(239,327,o),
(234,332,cs),
(32,534,ls),
(27,539,o),
(27,545,o),
(27,552,cs),
(27,558,o),
(28,563,o),
(32,567,cs),
(234,769,ls),
(239,774,o),
(245,774,o),
(252,774,cs),
(264,774,o),
(274,764,o),
(274,752,cs),
(274,745,o),
(274,739,o),
(269,734,cs),
(89,549,l),
(249,389,l),
(434,569,ls),
(439,574,o),
(445,574,o),
(452,574,cs),
(464,574,o),
(474,564,o),
(474,552,cs),
(474,545,o),
(474,539,o),
(469,534,cs),
(267,332,ls),
(263,328,o),
(258,327,o),
(252,327,cs)
);
},
{
closed = 1;
nodes = (
(437,727,o),
(427,737,o),
(427,751,cs),
(427,766,o),
(439,774,o),
(451,774,cs),
(464,774,o),
(474,764,o),
(474,751,cs),
(474,739,o),
(466,727,o),
(451,727,cs)
);
}
);
width = 500;
}
);
},
{
color = (255,153,254,255);
glyphname = R.part4;
layers = (
{
anchors = (
{
name = _bottom;
pos = (249,751);
},
{
name = bottom;
pos = (249,350);
}
);
layerId = "528058B1-8975-4609-A45E-1B73D3A96491";
shapes = (
{
closed = 1;
nodes = (
(42,327,o),
(27,332,o),
(27,344,cs),
(27,557,ls),
(27,569,o),
(42,574,o),
(52,574,cs),
(61,574,o),
(74,568,o),
(74,557,cs),
(74,344,ls),
(74,333,o),
(61,327,o),
(52,327,cs)
);
},
{
closed = 1;
nodes = (
(37,727,o),
(27,737,o),
(27,751,cs),
(27,766,o),
(39,774,o),
(51,774,cs),
(64,774,o),
(74,764,o),
(74,751,cs),
(74,739,o),
(66,727,o),
(51,727,cs)
);
},
{
closed = 1;
nodes = (
(242,527,o),
(227,532,o),
(227,544,cs),
(227,757,ls),
(227,769,o),
(242,774,o),
(252,774,cs),
(260,774,o),
(277,767,o),
(277,757,cs),
(277,614,l),
(434,769,ls),
(439,774,o),
(445,774,o),
(452,774,cs),
(464,774,o),
(474,764,o),
(474,752,cs),
(474,745,o),
(474,739,o),
(469,734,cs),
(267,532,ls),
(263,528,o),
(258,527,o),
(252,527,cs)
);
},
{
closed = 1;
nodes = (
(437,327,o),
(427,337,o),
(427,351,cs),
(427,366,o),
(439,374,o),
(451,374,cs),
(464,374,o),
(474,364,o),
(474,351,cs),
(474,339,o),
(466,327,o),
(451,327,cs)
);
}
);
width = 500;
}
);
},
{
color = (255,153,254,255);
glyphname = S.part4;
layers = (
{
anchors = (
{
name = _bottom;
pos = (249,751);
},
{
name = bottom;
pos = (249,350);
}
);
layerId = "528058B1-8975-4609-A45E-1B73D3A96491";
shapes = (
{
closed = 1;
nodes = (
(245,326,o),
(238,326,o),
(233,331,cs),
(31,533,ls),
(26,538,o),
(26,544,o),
(26,551,cs),
(26,565,o),
(38,573,o),
(51,573,cs),
(57,573,o),
(62,572,o),
(66,568,cs),
(226,413,l),
(226,756,ls),
(226,767,o),
(242,773,o),
(251,773,cs),
(257,773,o),
(262,772,o),
(266,768,cs),
(469,566,ls),
(473,562,o),
(474,557,o),
(474,551,cs),
(474,538,o),
(465,526,o),
(451,526,cs),
(445,526,o),
(439,526,o),
(434,531,cs),
(276,686,l),
(276,343,ls),
(276,333,o),
(259,326,o),
(251,326,cs)
);
},
{
closed = 1;
nodes = (
(36,726,o),
(26,736,o),
(26,750,cs),
(26,765,o),
(38,773,o),
(50,773,cs),
(63,773,o),
(73,763,o),
(73,750,cs),
(73,738,o),
(65,726,o),
(50,726,cs)
);
}
);
width = 500;
}
);
},
{
color = (255,153,254,255);
glyphname = T.part4;
layers = (
{
anchors = (
{
name = _bottom;
pos = (249,751);
},
{
name = bottom;
pos = (249,350);
}
);
guides = (
{
pos = (0,350);
}
);
layerId = "528058B1-8975-4609-A45E-1B73D3A96491";
shapes = (
{
closed = 1;
nodes = (
(36,326,o),
(26,336,o),
(26,350,cs),
(26,365,o),
(38,373,o),
(50,373,cs),
(63,373,o),
(73,363,o),
(73,350,cs),
(73,338,o),
(65,326,o),
(50,326,cs)
);
},
{
closed = 1;
nodes = (
(41,526,o),
(26,531,o),
(26,543,cs),
(26,756,ls),
(26,768,o),
(41,773,o),
(50,773,cs),
(60,773,o),
(73,767,o),
(73,756,cs),
(73,543,ls),
(73,532,o),
(60,526,o),
(50,526,cs)
);
},
{
closed = 1;
nodes = (
(136,426,o),
(126,436,o),
(126,451,cs),
(126,457,o),
(127,462,o),
(131,466,cs),
(434,768,ls),
(439,773,o),
(445,773,o),
(451,773,cs),
(463,773,o),
(474,763,o),
(474,751,cs),
(474,744,o),
(474,738,o),
(469,733,cs),
(166,431,ls),
(162,427,o),
(157,426,o),
(151,426,cs)
);
}
);
width = 500;
}
);
},
{
color = (255,153,254,255);
glyphname = U.part4;
layers = (
{
anchors = (
{
name = _bottom;
pos = (249,751);
},
{
name = bottom;
pos = (249,350);
}
);
guides = (
{
pos = (0,350);
}
);
layerId = "528058B1-8975-4609-A45E-1B73D3A96491";
shapes = (
{
closed = 1;
nodes = (
(34,524,o),
(24,534,o),
(24,548,cs),
(24,563,o),
(36,572,o),
(48,572,cs),
(61,572,o),
(71,561,o),
(71,548,cs),
(71,536,o),
(63,524,o),
(48,524,cs)
);
},
{
closed = 1;
nodes = (
(243,324,o),
(237,324,o),
(232,329,cs),
(129,432,ls),
(124,437,o),
(124,443,o),
(124,449,cs),
(124,463,o),
(136,472,o),
(149,472,cs),
(155,472,o),
(160,471,o),
(164,467,cs),
(249,387,l),
(409,547,l),
(229,732,ls),
(224,737,o),
(224,743,o),
(224,749,cs),
(224,763,o),
(236,772,o),
(249,772,cs),
(255,772,o),
(260,771,o),
(264,767,cs),
(467,564,ls),
(471,560,o),
(476,555,o),
(476,549,cs),
(476,543,o),
(472,537,o),
(467,532,cs),
(264,329,ls),
(260,325,o),
(255,324,o),
(249,324,cs)
);
}
);
width = 500;
}
);
},
{
color = (255,153,254,255);
glyphname = V.part4;
layers = (
{
anchors = (
{
name = _bottom;
pos = (249,751);
},
{
name = bottom;
pos = (249,350);
}
);
guides = (
{
pos = (0,350);
}
);
layerId = "528058B1-8975-4609-A45E-1B73D3A96491";
shapes = (
{
closed = 1;
nodes = (
(306,350,l),
(200,350,l),
(200,700,l),
(306,700,l)
);
},
{
closed = 1;
nodes = (
(229,463,l),
(229,424,l),
(277,424,l),
(277,463,l)
);
},
{
closed = 1;
nodes = (
(229,523,l),
(229,484,l),
(277,484,l),
(277,523,l),
(249,523,l),
(249,503,l),
(258,503,l),
(258,513,l),
(268,513,l),
(268,493,l),
(239,493,l),
(239,523,l)
);
},
{
closed = 1;
nodes = (
(229,385,l),
(229,375,l),
(277,375,l),
(277,385,l),
(245,385,l),
(277,404,l),
(277,414,l),
(229,414,l),
(229,405,l),
(262,405,l)
);
},
{
closed = 1;
nodes = (
(229,631,l),
(229,597,l),
(277,597,l),
(277,606,l),
(258,606,l),
(258,631,l)
);
},
{
closed = 1;
nodes = (
(229,651,l),
(229,641,l),
(277,641,l),
(277,651,l),
(256,651,l),
(256,666,l),
(277,666,l),
(277,675,l),
(229,675,l),
(229,666,l),
(246,666,l),
(246,651,l)
);
},
{
closed = 1;
nodes = (
(229,562,l),
(229,553,l),
(258,553,l),
(258,577,l),
(277,577,l),
(277,587,l),
(229,587,l),
(229,577,l),
(249,577,l),
(249,562,l)
);
},
{
closed = 1;
nodes = (
(229,542,l),
(229,533,l),
(277,533,l),
(277,567,l),
(268,567,l),
(268,542,l)
);
},
{
closed = 1;
nodes = (
(268,434,l),
(239,434,l),
(239,454,l),
(268,454,l)
);
},
{
closed = 1;
nodes = (
(249,606,l),
(239,606,l),
(239,621,l),
(249,621,l)
);
}
);
width = 500;
}
);
},
{
color = (255,153,254,255);
glyphname = W.part4;
layers = (
{
anchors = (
{
name = _bottom;
pos = (249,751);
},
{
name = bottom;
pos = (249,350);
}
);
guides = (
{
pos = (0,350);
}
);
layerId = "528058B1-8975-4609-A45E-1B73D3A96491";
shapes = (
{
closed = 1;
nodes = (
(36,326,o),
(26,336,o),
(26,351,cs),
(26,365,o),
(38,374,o),
(51,374,cs),
(63,374,o),
(73,363,o),
(73,351,cs),
(73,338,o),
(65,326,o),
(51,326,cs)
);
},
{
closed = 1;
nodes = (
(36,626,o),
(26,636,o),
(26,651,cs),
(26,657,o),
(27,662,o),
(31,666,cs),
(134,769,ls),
(139,774,o),
(145,774,o),
(151,774,cs),
(164,774,o),
(174,764,o),
(174,751,cs),
(174,745,o),
(174,739,o),
(169,734,cs),
(66,631,ls),
(62,627,o),
(57,626,o),
(51,626,cs)
);
},
{
closed = 1;
nodes = (
(445,326,o),
(439,326,o),
(434,331,cs),
(231,534,ls),
(226,539,o),
(226,545,o),
(226,551,cs),
(226,557,o),
(227,562,o),
(231,566,cs),
(434,769,ls),
(439,774,o),
(445,774,o),
(451,774,cs),
(464,774,o),
(474,764,o),
(474,751,cs),
(474,745,o),
(474,739,o),
(469,734,cs),
(289,551,l),
(469,366,ls),
(473,362,o),
(474,357,o),
(474,351,cs),
(474,338,o),
(465,326,o),
(451,326,cs)
);
}
);
width = 500;
}
);
},
{
color = (255,153,254,255);
glyphname = X.part4;
layers = (
{
anchors = (
{
name = _bottom;
pos = (249,751);
},
{
name = bottom;
pos = (249,350);
}
);
layerId = "528058B1-8975-4609-A45E-1B73D3A96491";
shapes = (
{
closed = 1;
nodes = (
(36,326,o),
(26,336,o),
(26,351,cs),
(26,357,o),
(27,362,o),
(31,366,cs),
(133,468,ls),
(138,473,o),
(144,473,o),
(151,473,cs),
(163,473,o),
(173,463,o),
(173,451,cs),
(173,444,o),
(173,438,o),
(168,433,cs),
(66,331,ls),
(62,327,o),
(57,326,o),
(51,326,cs)
);
},
{
closed = 1;
nodes = (
(36,726,o),
(26,736,o),
(26,750,cs),
(26,765,o),
(38,773,o),
(50,773,cs),
(63,773,o),
(73,763,o),
(73,750,cs),
(73,738,o),
(65,726,o),
(50,726,cs)
);
},
{
closed = 1;
nodes = (
(345,426,o),
(339,426,o),
(334,431,cs),
(231,533,ls),
(226,538,o),
(226,544,o),
(226,551,cs),
(226,557,o),
(227,562,o),
(231,566,cs),
(434,768,ls),
(439,773,o),
(445,773,o),
(451,773,cs),
(463,773,o),
(474,763,o),
(474,751,cs),
(474,744,o),
(474,738,o),
(469,733,cs),
(289,551,l),
(369,466,ls),
(373,462,o),
(374,457,o),
(374,451,cs),
(374,438,o),
(365,426,o),
(351,426,cs)
);
}
);
width = 500;
}
);
},
{
color = (255,153,254,255);
glyphname = Y.part4;
layers = (
{
anchors = (
{
name = _bottom;
pos = (249,751);
},
{
name = bottom;
pos = (249,350);
}
);
guides = (
{
pos = (0,350);
}
);
layerId = "528058B1-8975-4609-A45E-1B73D3A96491";
shapes = (
{
closed = 1;
nodes = (
(36,326,o),
(26,336,o),
(26,351,cs),
(26,357,o),
(27,362,o),
(31,366,cs),
(134,469,ls),
(139,474,o),
(145,474,o),
(151,474,cs),
(164,474,o),
(174,464,o),
(174,451,cs),
(174,445,o),
(174,439,o),
(169,434,cs),
(66,331,ls),
(62,327,o),
(57,326,o),
(51,326,cs)
);
},
{
closed = 1;
nodes = (
(36,726,o),
(26,736,o),
(26,751,cs),
(26,765,o),
(38,774,o),
(51,774,cs),
(63,774,o),
(73,763,o),
(73,751,cs),
(73,738,o),
(65,726,o),
(51,726,cs)
);
},
{
closed = 1;
nodes = (
(445,326,o),
(439,326,o),
(434,331,cs),
(131,634,ls),
(126,639,o),
(126,645,o),
(126,651,cs),
(126,665,o),
(138,674,o),
(151,674,cs),
(157,674,o),
(162,673,o),
(166,669,cs),
(469,366,ls),
(473,362,o),
(474,357,o),
(474,351,cs),
(474,338,o),
(465,326,o),
(451,326,cs)
);
},
{
closed = 1;
nodes = (
(336,626,o),
(326,636,o),
(326,651,cs),
(326,657,o),
(327,662,o),
(331,666,cs),
(434,769,ls),
(439,774,o),
(445,774,o),
(451,774,cs),
(464,774,o),
(474,764,o),
(474,751,cs),
(474,745,o),
(474,739,o),
(469,734,cs),
(366,631,ls),
(362,627,o),
(357,626,o),
(351,626,cs)
);
}
);
width = 500;
}
);
},
{
color = (255,153,254,255);
glyphname = Z.part4;
layers = (
{
anchors = (
{
name = _bottom;
pos = (249,751);
},
{
name = bottom;
pos = (249,350);
}
);
layerId = "528058B1-8975-4609-A45E-1B73D3A96491";
shapes = (
{
closed = 1;
nodes = (
(36,326,o),
(26,336,o),
(26,350,cs),
(26,365,o),
(38,374,o),
(50,374,cs),
(63,374,o),
(74,363,o),
(74,350,cs),
(74,338,o),
(65,326,o),
(50,326,cs)
);
},
{
closed = 1;
nodes = (
(40,426,o),
(26,431,o),
(26,444,cs),
(26,756,ls),
(26,769,o),
(40,774,o),
(51,774,cs),
(57,774,o),
(62,773,o),
(66,769,cs),
(369,466,ls),
(373,462,o),
(374,457,o),
(374,451,cs),
(374,438,o),
(365,426,o),
(351,426,cs),
(345,426,o),
(339,426,o),
(334,431,cs),
(74,688,l),
(74,444,ls),
(74,432,o),
(60,426,o),
(50,426,cs)
);
},
{
closed = 1;
nodes = (
(436,326,o),
(426,336,o),
(426,350,cs),
(426,365,o),
(438,374,o),
(450,374,cs),
(464,374,o),
(474,364,o),
(474,350,cs),
(474,338,o),
(465,326,o),
(450,326,cs)
);
},
{
closed = 1;
nodes = (
(440,526,o),
(426,531,o),
(426,544,cs),
(426,756,ls),
(426,769,o),
(440,774,o),
(451,774,cs),
(461,774,o),
(474,768,o),
(474,756,cs),
(474,544,ls),
(474,532,o),
(461,526,o),
(451,526,cs)
);
}
);
width = 500;
}
);
},
{
color = (255,153,254,255);
glyphname = end.part4;
layers = (
{
anchors = (
{
name = _bottom;
pos = (249,751);
}
);
layerId = "528058B1-8975-4609-A45E-1B73D3A96491";
shapes = (
{
closed = 1;
nodes = (
(426,763,o),
(436,774,o),
(450,774,cs),
(465,774,o),
(474,762,o),
(474,750,cs),
(474,737,o),
(464,727,o),
(450,727,cs),
(438,727,o),
(426,736,o),
(426,750,cs)
);
},
{
closed = 1;
nodes = (
(26,355,o),
(27,362,o),
(33,368,cs),
(334,669,ls),
(339,674,o),
(345,674,o),
(351,674,cs),
(365,674,o),
(374,662,o),
(374,649,cs),
(374,643,o),
(373,638,o),
(369,634,cs),
(68,333,ls),
(63,328,o),
(57,326,o),
(51,326,cs),
(38,326,o),
(26,335,o),
(26,349,cs)
);
}
);
width = 500;
}
);
},
{
glyphname = G_A;
kernLeft = kern_all;
kernRight = kern_all;
layers = (
{
anchors = (
{
name = _bottom;
pos = (249,751);
},
{
name = bottom;
pos = (249,-50);
}
);
guides = (
{
pos = (0,350);
}
);
layerId = "528058B1-8975-4609-A45E-1B73D3A96491";
shapes = (
{
closed = 1;
nodes = (
(25,761,o),
(30,775,o),
(43,775,cs),
(255,775,ls),
(268,775,o),
(273,761,o),
(273,751,cs),
(273,740,o),
(266,727,o),
(255,727,cs),
(43,727,ls),
(32,727,o),
(25,740,o),
(25,751,cs)
);
},
{
closed = 1;
nodes = (
(425,765,o),
(435,775,o),
(449,775,cs),
(464,775,o),
(473,763,o),
(473,751,cs),
(473,738,o),
(462,727,o),
(449,727,cs),
(437,727,o),
(425,736,o),
(425,751,cs)
);
},
{
closed = 1;
nodes = (
(225,561,o),
(230,575,o),
(243,575,cs),
(455,575,ls),
(468,575,o),
(473,561,o),
(473,550,cs),
(473,540,o),
(467,527,o),
(455,527,cs),
(243,527,ls),
(231,527,o),
(225,540,o),
(225,550,cs)
);
},
{
closed = 1;
nodes = (
(25,364,o),
(35,374,o),
(49,374,cs),
(64,374,o),
(73,362,o),
(73,350,cs),
(73,336,o),
(63,326,o),
(49,326,cs),
(37,326,o),
(25,335,o),
(25,350,cs)
);
},
{
closed = 1;
nodes = (
(225,361,o),
(230,375,o),
(243,375,cs),
(455,375,ls),
(468,375,o),
(473,361,o),
(473,350,cs),
(473,340,o),
(467,327,o),
(455,327,cs),
(243,327,ls),
(231,327,o),
(225,340,o),
(225,350,cs)
);
},
{
closed = 1;
nodes = (
(425,365,o),
(435,375,o),
(450,375,cs),
(464,375,o),
(473,363,o),
(473,351,cs),
(473,338,o),
(462,327,o),
(450,327,cs),
(437,327,o),
(425,336,o),
(425,351,cs)
);
},
{
closed = 1;
nodes = (
(25,-44,o),
(25,-38,o),
(30,-33,cs),
(333,270,ls),
(338,275,o),
(344,275,o),
(350,275,cs),
(364,275,o),
(373,263,o),
(373,250,cs),
(373,244,o),
(372,239,o),
(368,235,cs),
(65,-68,ls),
(61,-72,o),
(56,-73,o),
(50,-73,cs),
(37,-73,o),
(25,-64,o),
(25,-50,cs)
);
},
{
closed = 1;
nodes = (
(225,-39,o),
(230,-25,o),
(243,-25,cs),
(455,-25,ls),
(468,-25,o),
(473,-39,o),
(473,-50,cs),
(473,-60,o),
(467,-73,o),
(455,-73,cs),
(243,-73,ls),
(231,-73,o),
(225,-60,o),
(225,-50,cs)
);
}
);
width = 500;
}
);
},
{
glyphname = O;
kernLeft = kern_all;
kernRight = kern_all;
layers = (
{
anchors = (
{
name = _bottom;
pos = (249,741);
}
);
layerId = "528058B1-8975-4609-A45E-1B73D3A96491";
shapes = (
{
closed = 1;
nodes = (
(25,551,o),
(25,557,o),
(30,562,cs),
(233,765,ls),
(238,770,o),
(244,773,o),
(250,773,cs),
(256,773,o),
(261,769,o),
(265,765,cs),
(368,662,ls),
(373,657,o),
(373,651,o),
(373,645,cs),
(373,632,o),
(363,622,o),
(350,622,cs),
(344,622,o),
(338,622,o),
(333,627,cs),
(248,708,l),
(88,545,l),
(248,385,l),
(333,465,ls),
(338,470,o),
(344,470,o),
(350,470,cs),
(364,470,o),
(373,458,o),
(373,445,cs),
(373,439,o),
(372,434,o),
(368,430,cs),
(265,327,ls),
(261,323,o),
(256,319,o),
(250,319,cs),
(244,319,o),
(238,322,o),
(233,327,cs),
(30,530,ls),
(26,534,o),
(25,539,o),
(25,545,cs)
);
},
{
closed = 1;
nodes = (
(425,560,o),
(435,570,o),
(449,570,cs),
(464,570,o),
(473,558,o),
(473,546,cs),
(473,532,o),
(463,522,o),
(450,522,cs),
(437,522,o),
(425,531,o),
(425,547,cs)
);
},
{
closed = 1;
nodes = (
(425,363,o),
(435,374,o),
(449,374,cs),
(464,374,o),
(473,362,o),
(473,350,cs),
(473,337,o),
(463,327,o),
(449,327,cs),
(437,327,o),
(425,336,o),
(425,350,cs)
);
},
{
closed = 1;
nodes = (
(25,-45,o),
(26,-38,o),
(32,-32,cs),
(333,269,ls),
(338,274,o),
(344,274,o),
(350,274,cs),
(364,274,o),
(373,262,o),
(373,249,cs),
(373,243,o),
(372,238,o),
(368,234,cs),
(67,-67,ls),
(62,-72,o),
(56,-74,o),
(50,-74,cs),
(37,-74,o),
(25,-65,o),
(25,-51,cs)
);
}
);
width = 500;
}
);
unicode = (79,111);
},
{
color = (255,153,254,255);
glyphname = S_H.4;
kernLeft = kern_all;
kernRight = kern_all;
layers = (
{
anchors = (
{
name = _bottom;
pos = (249,751);
},
{
name = bottom;
pos = (249,-51);
}
);
layerId = "528058B1-8975-4609-A45E-1B73D3A96491";
shapes = (
{
closed = 1;
nodes = (
(245,326,o),
(238,326,o),
(233,331,cs),
(31,533,ls),
(26,538,o),
(26,544,o),
(26,551,cs),
(26,565,o),
(38,573,o),
(51,573,cs),
(57,573,o),
(62,572,o),
(66,568,cs),
(226,413,l),
(226,756,ls),
(226,767,o),
(242,773,o),
(251,773,cs),
(257,773,o),
(262,772,o),
(266,768,cs),
(469,566,ls),
(473,562,o),
(474,557,o),
(474,551,cs),
(474,538,o),
(465,526,o),
(451,526,cs),
(445,526,o),
(439,526,o),
(434,531,cs),
(276,686,l),
(276,343,ls),
(276,333,o),
(259,326,o),
(251,326,cs)
);
},
{
closed = 1;
nodes = (
(36,726,o),
(26,736,o),
(26,750,cs),
(26,765,o),
(38,773,o),
(50,773,cs),
(63,773,o),
(73,763,o),
(73,750,cs),
(73,738,o),
(65,726,o),
(50,726,cs)
);
},
{
closed = 1;
nodes = (
(36,125,o),
(26,135,o),
(26,150,cs),
(26,156,o),
(27,161,o),
(31,165,cs),
(234,368,ls),
(239,373,o),
(245,373,o),
(251,373,cs),
(260,373,o),
(275,365,o),
(275,355,cs),
(275,112,l),
(434,268,ls),
(439,273,o),
(445,273,o),
(451,273,cs),
(464,273,o),
(474,263,o),
(474,250,cs),
(474,244,o),
(474,238,o),
(469,233,cs),
(266,30,ls),
(262,26,o),
(257,25,o),
(251,25,cs),
(242,25,o),
(227,32,o),
(227,43,cs),
(227,286,l),
(66,130,ls),
(62,126,o),
(57,125,o),
(51,125,cs)
);
},
{
closed = 1;
nodes = (
(437,-75,o),
(427,-65,o),
(427,-51,cs),
(427,-36,o),
(439,-27,o),
(451,-27,cs),
(465,-27,o),
(475,-37,o),
(475,-51,cs),
(475,-63,o),
(466,-75,o),
(451,-75,cs)
);
}
);
width = 500;
}
);
},
{
color = (255,153,254,255);
glyphname = U.4;
kernLeft = kern_all;
kernRight = kern_all;
layers = (
{
anchors = (
{
name = _bottom;
pos = (249,751);
}
);
guides = (
{
pos = (0,350);
}
);
layerId = "528058B1-8975-4609-A45E-1B73D3A96491";
shapes = (
{
closed = 1;
nodes = (
(34,524,o),
(24,534,o),
(24,548,cs),
(24,563,o),
(36,572,o),
(48,572,cs),
(61,572,o),
(71,561,o),
(71,548,cs),
(71,536,o),
(63,524,o),
(48,524,cs)
);
},
{
closed = 1;
nodes = (
(243,324,o),
(237,324,o),
(232,329,cs),
(129,432,ls),
(124,437,o),
(124,443,o),
(124,449,cs),
(124,463,o),
(136,472,o),
(149,472,cs),
(155,472,o),
(160,471,o),
(164,467,cs),
(249,387,l),
(409,547,l),
(229,732,ls),
(224,737,o),
(224,743,o),
(224,749,cs),
(224,763,o),
(236,772,o),
(249,772,cs),
(255,772,o),
(260,771,o),
(264,767,cs),
(467,564,ls),
(471,560,o),
(476,555,o),
(476,549,cs),
(476,543,o),
(472,537,o),
(467,532,cs),
(264,329,ls),
(260,325,o),
(255,324,o),
(249,324,cs)
);
},
{
closed = 1;
nodes = (
(426,362,o),
(436,373,o),
(450,373,cs),
(465,373,o),
(474,361,o),
(474,349,cs),
(474,336,o),
(464,326,o),
(450,326,cs),
(438,326,o),
(426,335,o),
(426,349,cs)
);
},
{
closed = 1;
nodes = (
(26,-46,o),
(27,-39,o),
(33,-33,cs),
(334,268,ls),
(339,273,o),
(345,273,o),
(351,273,cs),
(365,273,o),
(374,261,o),
(374,248,cs),
(374,242,o),
(373,237,o),
(369,233,cs),
(68,-68,ls),
(63,-73,o),
(57,-75,o),
(51,-75,cs),
(38,-75,o),
(26,-66,o),
(26,-52,cs)
);
}
);
width = 500;
}
);
},
{
color = (153,255,154,255);
glyphname = D_E.3;
kernLeft = kern_all;
kernRight = kern_all;
layers = (
{
anchors = (
{
name = _bottom;
pos = (249,751);
},
{
name = bottom;
pos = (249,-51);
}
);
guides = (
{
pos = (0,350);
},
{
pos = (0,-51);
}
);
layerId = "528058B1-8975-4609-A45E-1B73D3A96491";
shapes = (
{
closed = 1;
nodes = (
(475,342,o),
(470,327,o),
(458,327,cs),
(190,327,l),
(33,484,ls),
(28,489,o),
(28,495,o),
(28,502,cs),
(28,514,o),
(38,524,o),
(50,524,cs),
(57,524,o),
(63,524,o),
(68,519,cs),
(213,375,l),
(458,375,ls),
(468,375,o),
(475,360,o),
(475,351,cs)
);
},
{
closed = 1;
nodes = (
(475,537,o),
(465,527,o),
(450,527,cs),
(444,527,o),
(439,528,o),
(435,532,cs),
(233,735,ls),
(228,740,o),
(228,746,o),
(228,752,cs),
(228,764,o),
(238,775,o),
(250,775,cs),
(257,775,o),
(263,775,o),
(268,770,cs),
(470,567,ls),
(474,563,o),
(475,558,o),
(475,552,cs)
);
},
{
closed = 1;
nodes = (
(75,737,o),
(65,727,o),
(51,727,cs),
(36,727,o),
(28,739,o),
(28,751,cs),
(28,764,o),
(38,775,o),
(51,775,cs),
(63,775,o),
(75,766,o),
(75,751,cs)
);
},
{
closed = 1;
nodes = (
(475,-64,o),
(465,-74,o),
(451,-74,cs),
(436,-74,o),
(427,-62,o),
(427,-50,cs),
(427,-37,o),
(438,-26,o),
(451,-26,cs),
(463,-26,o),
(475,-35,o),
(475,-50,cs)
);
},
{
closed = 1;
nodes = (
(275,-61,o),
(270,-74,o),
(257,-74,cs),
(45,-74,ls),
(32,-74,o),
(27,-61,o),
(27,-50,cs),
(27,-39,o),
(34,-26,o),
(45,-26,cs),
(257,-26,ls),
(268,-26,o),
(275,-39,o),
(275,-50,cs)
);
},
{
closed = 1;
nodes = (
(375,140,o),
(370,126,o),
(357,126,cs),
(145,126,ls),
(132,126,o),
(127,140,o),
(127,151,cs),
(127,161,o),
(133,174,o),
(145,174,cs),
(357,174,ls),
(369,174,o),
(375,161,o),
(375,151,cs)
);
},
{
closed = 1;
nodes = (
(475,336,o),
(465,326,o),
(450,326,cs),
(436,326,o),
(427,338,o),
(427,351,cs),
(427,364,o),
(437,374,o),
(450,374,cs),
(463,374,o),
(475,365,o),
(475,351,cs)
);
},
{
closed = 1;
nodes = (
(275,340,o),
(270,326,o),
(257,326,cs),
(45,326,ls),
(32,326,o),
(27,340,o),
(27,351,cs),
(27,361,o),
(33,374,o),
(45,374,cs),
(257,374,ls),
(269,374,o),
(275,361,o),
(275,351,cs)
);
}
);
width = 500;
}
);
},
{
color = (153,255,154,255);
glyphname = N_G.3;
kernLeft = kern_all;
kernRight = kern_all;
layers = (
{
anchors = (
{
name = _bottom;
pos = (249,751);
},
{
name = bottom;
pos = (249,-51);
}
);
guides = (
{
pos = (0,350);
},
{
pos = (0,-51);
}
);
layerId = "528058B1-8975-4609-A45E-1B73D3A96491";
shapes = (
{
closed = 1;
nodes = (
(475,336,o),
(465,326,o),
(450,326,cs),
(444,326,o),
(439,327,o),
(435,331,cs),
(32,734,ls),
(27,739,o),
(27,745,o),
(27,751,cs),
(27,764,o),
(37,774,o),
(50,774,cs),
(56,774,o),
(62,774,o),
(67,769,cs),
(470,366,ls),
(474,362,o),
(475,357,o),
(475,351,cs)
);
},
{
closed = 1;
nodes = (
(175,336,o),
(165,326,o),
(150,326,cs),
(144,326,o),
(139,327,o),
(135,331,cs),
(32,434,ls),
(27,439,o),
(27,445,o),
(27,451,cs),
(27,464,o),
(37,474,o),
(50,474,cs),
(56,474,o),
(62,474,o),
(67,469,cs),
(170,366,ls),
(174,362,o),
(175,357,o),
(175,351,cs)
);
},
{
closed = 1;
nodes = (
(475,737,o),
(465,727,o),
(451,727,cs),
(436,727,o),
(427,739,o),
(427,751,cs),
(427,765,o),
(437,775,o),
(451,775,cs),
(463,775,o),
(475,766,o),
(475,751,cs)
);
},
{
closed = 1;
nodes = (
(475,-61,o),
(470,-75,o),
(457,-75,cs),
(245,-75,ls),
(232,-75,o),
(227,-61,o),
(227,-51,cs),
(227,-40,o),
(234,-27,o),
(245,-27,cs),
(457,-27,ls),
(468,-27,o),
(475,-40,o),
(475,-51,cs)
);
},
{
closed = 1;
nodes = (
(75,-65,o),
(65,-75,o),
(51,-75,cs),
(36,-75,o),
(27,-63,o),
(27,-51,cs),
(27,-38,o),
(38,-27,o),
(51,-27,cs),
(63,-27,o),
(75,-36,o),
(75,-51,cs)
);
},
{
closed = 1;
nodes = (
(275,139,o),
(270,125,o),
(257,125,cs),
(45,125,ls),
(32,125,o),
(27,139,o),
(27,150,cs),
(27,160,o),
(33,173,o),
(45,173,cs),
(257,173,ls),
(269,173,o),
(275,160,o),
(275,150,cs)
);
},
{
closed = 1;
nodes = (
(475,336,o),
(465,326,o),
(451,326,cs),
(436,326,o),
(427,338,o),
(427,350,cs),
(427,364,o),
(437,374,o),
(451,374,cs),
(463,374,o),
(475,365,o),
(475,350,cs)
);
},
{
closed = 1;
nodes = (
(275,339,o),
(270,325,o),
(257,325,cs),
(45,325,ls),
(32,325,o),
(27,339,o),
(27,350,cs),
(27,360,o),
(33,373,o),
(45,373,cs),
(257,373,ls),
(269,373,o),
(275,360,o),
(275,350,cs)
);
}
);
width = 500;
}
);
},
{
color = (154,153,255,255);
glyphname = E.2;
kernLeft = kern_all;
kernRight = kern_all;
layers = (
{
anchors = (
{
name = _bottom;
pos = (249,751);
}
);
guides = (
{
pos = (0,350);
}
);
layerId = "528058B1-8975-4609-A45E-1B73D3A96491";
shapes = (
{
closed = 1;
nodes = (
(464,776,o),
(474,766,o),
(474,752,cs),
(474,737,o),
(462,728,o),
(450,728,cs),
(437,728,o),
(426,739,o),
(426,752,cs),
(426,764,o),
(435,776,o),
(450,776,cs)
);
},
{
closed = 1;
nodes = (
(461,576,o),
(474,571,o),
(474,558,cs),
(474,346,ls),
(474,333,o),
(461,328,o),
(450,328,cs),
(439,328,o),
(426,335,o),
(426,346,cs),
(426,558,ls),
(426,569,o),
(439,576,o),
(450,576,cs)
);
},
{
closed = 1;
nodes = (
(260,676,o),
(274,671,o),
(274,658,cs),
(274,446,ls),
(274,433,o),
(260,428,o),
(249,428,cs),
(239,428,o),
(226,434,o),
(226,446,cs),
(226,658,ls),
(226,670,o),
(239,676,o),
(249,676,cs)
);
},
{
closed = 1;
nodes = (
(64,776,o),
(74,766,o),
(74,751,cs),
(74,737,o),
(62,728,o),
(49,728,cs),
(36,728,o),
(26,738,o),
(26,751,cs),
(26,764,o),
(35,776,o),
(49,776,cs)
);
},
{
closed = 1;
nodes = (
(60,576,o),
(74,571,o),
(74,558,cs),
(74,346,ls),
(74,333,o),
(60,328,o),
(49,328,cs),
(39,328,o),
(26,334,o),
(26,346,cs),
(26,558,ls),
(26,570,o),
(39,576,o),
(49,576,cs)
);
},
{
closed = 1;
nodes = (
(426,364,o),
(436,375,o),
(450,375,cs),
(465,375,o),
(474,363,o),
(474,351,cs),
(474,338,o),
(464,328,o),
(450,328,cs),
(438,328,o),
(426,337,o),
(426,351,cs)
);
},
{
closed = 1;
nodes = (
(26,-44,o),
(27,-37,o),
(33,-31,cs),
(334,270,ls),
(339,275,o),
(345,275,o),
(351,275,cs),
(365,275,o),
(374,263,o),
(374,250,cs),
(374,244,o),
(373,239,o),
(369,235,cs),
(68,-66,ls),
(63,-71,o),
(57,-73,o),
(51,-73,cs),
(38,-73,o),
(26,-64,o),
(26,-50,cs)
);
}
);
width = 500;
}
);
},
{
color = (154,153,255,255);
glyphname = X_U.2;
kernLeft = kern_all;
kernRight = kern_all;
layers = (
{
anchors = (
{
name = _bottom;
pos = (249,751);
},
{
name = bottom;
pos = (249,-51);
}
);
guides = (
{
pos = (0,-51);
}
);
layerId = "528058B1-8975-4609-A45E-1B73D3A96491";
shapes = (
{
closed = 1;
nodes = (
(464,776,o),
(474,766,o),
(474,751,cs),
(474,745,o),
(473,740,o),
(469,736,cs),
(367,634,ls),
(362,629,o),
(356,629,o),
(349,629,cs),
(337,629,o),
(327,639,o),
(327,651,cs),
(327,658,o),
(327,664,o),
(332,669,cs),
(434,771,ls),
(438,775,o),
(443,776,o),
(449,776,cs)
);
},
{
closed = 1;
nodes = (
(464,376,o),
(474,366,o),
(474,352,cs),
(474,337,o),
(462,329,o),
(450,329,cs),
(437,329,o),
(427,339,o),
(427,352,cs),
(427,364,o),
(435,376,o),
(450,376,cs)
);
},
{
closed = 1;
nodes = (
(155,676,o),
(161,676,o),
(166,671,cs),
(269,569,ls),
(274,564,o),
(274,558,o),
(274,551,cs),
(274,545,o),
(273,540,o),
(269,536,cs),
(66,334,ls),
(61,329,o),
(55,329,o),
(49,329,cs),
(37,329,o),
(26,339,o),
(26,351,cs),
(26,358,o),
(26,364,o),
(31,369,cs),
(211,551,l),
(131,636,ls),
(127,640,o),
(126,645,o),
(126,651,cs),
(126,664,o),
(135,676,o),
(149,676,cs)
);
},
{
closed = 1;
nodes = (
(466,173,o),
(476,163,o),
(476,149,cs),
(476,134,o),
(464,125,o),
(452,125,cs),
(439,125,o),
(429,136,o),
(429,149,cs),
(429,161,o),
(437,173,o),
(452,173,cs)
);
},
{
closed = 1;
nodes = (
(257,373,o),
(263,373,o),
(268,368,cs),
(371,265,ls),
(376,260,o),
(376,254,o),
(376,248,cs),
(376,234,o),
(364,225,o),
(351,225,cs),
(345,225,o),
(340,226,o),
(336,230,cs),
(251,310,l),
(91,150,l),
(271,-35,ls),
(276,-40,o),
(276,-46,o),
(276,-52,cs),
(276,-66,o),
(264,-75,o),
(251,-75,cs),
(245,-75,o),
(240,-74,o),
(236,-70,cs),
(33,133,ls),
(29,137,o),
(24,142,o),
(24,148,cs),
(24,154,o),
(28,160,o),
(33,165,cs),
(236,368,ls),
(240,372,o),
(245,373,o),
(251,373,cs)
);
}
);
width = 500;
}
);
},
